<svg xmlns="http://www.w3.org/2000/svg" width="23.5" height="36.252" viewBox="0 0 23.5 36.252">
  <g id="Group_7603" data-name="Group 7603" transform="translate(-9.203 -1.035)">
    <g id="Male_sit_and_pray" data-name="Male sit and pray" transform="translate(9.203 1.035)">
      <path id="Path_5354" data-name="Path 5354" d="M9.974,45.943h3.8V42h-.986C9.619,42,8.207,45.943,9.974,45.943Z" transform="translate(-9.203 -9.692)" fill="#37b898"/>
      <path id="Path_5355" data-name="Path 5355" d="M30.677,32.771l-5.45-2.1a3.155,3.155,0,0,1-1.948-2.256c-3.155.386-6.089-.418-6.507-3.352l-.41-2.847A.8.8,0,0,1,17.94,22l.4,2.816c.552,3.857,8.833,1.388,10.773.1L27.4,21.437l-4.732.67c-.276,0-.15.371-.5-2.413a4.732,4.732,0,0,0-2.745-3.73l-1.491-.686A2.366,2.366,0,0,0,14.7,16.587c-.875,2.366-.7,2.437-.7,15.774,0,1.183.6,2.366,1.79,2.366h8.463a.789.789,0,0,1,0,1.577H16.362v3.943H31.347a2.366,2.366,0,0,0,2.366-2.366v-.694A4.732,4.732,0,0,0,30.677,32.771Z" transform="translate(-10.213 -3.996)" fill="#37b898"/>
      <path id="Path_5356" data-name="Path 5356" d="M17.754,5.992c7.571-3.376,6.877-3,6.775-3.155A3.746,3.746,0,0,0,17.58,4.762a5.781,5.781,0,0,0,.174,1.23Z" transform="translate(-10.974 -1.035)" fill="#37b898"/>
      <path id="Path_5357" data-name="Path 5357" d="M18.789,9.93l-.41,1.538a13.005,13.005,0,0,1,2.958,1.183c.339-1.278.363-1.159.284-1.2a7.1,7.1,0,0,0,1.2.237,1.577,1.577,0,0,0,1.672-1.278c.4-2.193,1.4-2.334.8-5.111L18,8.549C18,9.3,18,9.291,18.789,9.93Z" transform="translate(-11.062 -1.936)" fill="#37b898"/>
      <path id="Path_5358" data-name="Path 5358" d="M35.343,21,32.89,22.222,34.4,25.251A3.029,3.029,0,0,0,35.343,21Z" transform="translate(-14.209 -5.254)" fill="#37b898"/>
    </g>
  </g>
</svg>
