<svg id="Group_2035" data-name="Group 2035" xmlns="http://www.w3.org/2000/svg" width="21.793" height="19.07" viewBox="0 0 21.793 19.07">
  <g id="Pray_open_hand" data-name="Pray open hand" transform="translate(0 0)">
    <path id="Path_1256" data-name="Path 1256" d="M9.457,6.917l-.695,3.932a.461.461,0,0,1-.908-.154l1.09-6.1a.981.981,0,0,0-1.067-.186c-.191,1.076-.041.222-.835,4.74a.461.461,0,1,1-.908-.154c.831-4.726.608-3.45,1.012-5.725A.976.976,0,0,0,6.07,3.085l-.795,4.54a.461.461,0,1,1-.908-.154L4.9,4.388a.994.994,0,0,0-1.621.554L2.724,8.156c.908-.363,2.27,1.158,1.666,2.7l-.3.722A5.625,5.625,0,0,1,7.5,14.449a.454.454,0,0,1-.808.409,4.74,4.74,0,0,0-3.3-2.524.454.454,0,0,1-.336-.613c.454-1.2.568-1.362.568-1.666,0-.6-.454-1.267-1.058-1.094-.272.082-.227.091-1.575,1.439A3.8,3.8,0,0,0,0,12.883c0,1.494,2.488,2.983,2.488,4.477a21.378,21.378,0,0,1-1.4,4.708H8.027c.54-4.658,2.415-4.54,2.415-7.523V7.911A1,1,0,0,0,9.457,6.917Z" transform="translate(0 -2.998)" fill="#37b898"/>
    <path id="Path_1257" data-name="Path 1257" d="M35.411,12.884c0-1.752-1.117-2.606-2.27-3.737a.7.7,0,0,0-.322-.186c-.717-.213-1.267.781-.967,1.562.5,1.267.586,1.339.454,1.585-.222.413-.908.109-2.27,1.1-1.412,1.085-1.18,1.9-1.766,1.9a.454.454,0,0,1-.4-.658,5.625,5.625,0,0,1,3.46-2.874,3.814,3.814,0,0,1-.454-1.521c0-1.044.908-2.27,1.816-1.9l-.558-3.214a.994.994,0,0,0-1.653-.554l.536,3.083a.461.461,0,1,1-.908.154l-.795-4.54a.981.981,0,0,0-1.076.182c.4,2.27.173.963,1.012,5.725a.461.461,0,1,1-.908.154c-.776-4.6-.613-3.664-.8-4.74a.981.981,0,0,0-1.067.186l1.076,6.125a.461.461,0,1,1-.908.154L25.94,6.941a1,1,0,0,0-.972.972c0,6.81-.259,7.891.844,9.493a10.474,10.474,0,0,1,1.571,4.663h6.942a21.378,21.378,0,0,1-1.4-4.708C32.923,15.867,35.411,14.377,35.411,12.884Z" transform="translate(-13.618 -2.999)" fill="#37b898"/>
  </g>
</svg>
