<svg xmlns="http://www.w3.org/2000/svg" width="28.89" height="28.89" viewBox="0 0 28.89 28.89">
  <g id="Group_1872" data-name="Group 1872" transform="translate(-48.576 0)">
    <g id="vuesax_bold_previous" data-name="vuesax/bold/previous" transform="translate(48.576 0)">
      <g id="previous" transform="translate(0)">
        <path id="Vector" d="M0,0H28.89V28.89H0Z" transform="translate(28.89 28.89) rotate(180)" fill="none" opacity="0"/>
        <path id="Vector-2" data-name="Vector" d="M16.136,3.076V14.6a3.077,3.077,0,0,1-4.61,2.66l-5-2.877-5-2.889a3.063,3.063,0,0,1,0-5.308l5-2.889,5-2.877A3.073,3.073,0,0,1,16.136,3.076Z" transform="translate(8.228 5.615)" fill="#fff"/>
        <path id="Vector-3" data-name="Vector" d="M.9,16.684a.909.909,0,0,1-.9-.9V.9A.909.909,0,0,1,.9,0a.909.909,0,0,1,.9.9V15.781A.909.909,0,0,1,.9,16.684Z" transform="translate(3.623 6.103)" fill="#fff"/>
      </g>
    </g>
  </g>
</svg>
