<svg xmlns="http://www.w3.org/2000/svg" width="32.531" height="22.149" viewBox="0 0 32.531 22.149">
  <g id="Group_7607" data-name="Group 7607" transform="translate(0 -80)">
    <g id="Group_7606" data-name="Group 7606" transform="translate(0 80)">
      <g id="Group_7605" data-name="Group 7605" transform="translate(0 0)">
        <g id="Group_7604" data-name="Group 7604">
          <path id="Path_5359" data-name="Path 5359" d="M39.1,190.127h7.048c.392,0,.881,0,.881-1.73,0-.819-1.575-1.73-2.643-1.73H39.226a1.838,1.838,0,0,0-1.881,1.571A1.745,1.745,0,0,0,39.1,190.127Z" transform="translate(-34.915 -179.745)" fill="#37b898"/>
          <path id="Path_5360" data-name="Path 5360" d="M31.839,91.074H2.076V80.692A.692.692,0,0,0,1.384,80H.692A.692.692,0,0,0,0,80.692v20.765a.692.692,0,0,0,.692.692h.692a.692.692,0,0,0,.692-.692V96.612H30.455v4.845a.692.692,0,0,0,.692.692h.692a.692.692,0,0,0,.692-.692v-9.69A.692.692,0,0,0,31.839,91.074Z" transform="translate(0 -80)" fill="#37b898"/>
        </g>
      </g>
    </g>
  </g>
</svg>
