<svg xmlns="http://www.w3.org/2000/svg" width="16.738" height="13.013" viewBox="0 0 16.738 13.013">
  <g id="Group_4109" data-name="Group 4109" transform="translate(0 -34.2)">
    <g id="_x31_1-DSLR_Camera" transform="translate(0 34.2)">
      <path id="Path_3657" data-name="Path 3657" d="M15.518,35.94H11.088l-.895-1.5a.485.485,0,0,0-.417-.237H6.962a.485.485,0,0,0-.417.237l-.895,1.5H4.2v-.331a.485.485,0,0,0-.485-.485h-1.8a.485.485,0,0,0-.485.485v.331H1.22A1.22,1.22,0,0,0,0,37.16v8.833a1.22,1.22,0,0,0,1.22,1.22h14.3a1.22,1.22,0,0,0,1.22-1.22V37.16A1.22,1.22,0,0,0,15.518,35.94ZM8.369,45.049a3.473,3.473,0,1,1,3.472-3.473A3.472,3.472,0,0,1,8.369,45.049Zm6.388-6.594h-1.52a.485.485,0,0,1,0-.97h1.52a.485.485,0,1,1,0,.97Z" transform="translate(0 -34.2)" fill="#fff"/>
      <circle id="Ellipse_167" data-name="Ellipse 167" cx="2.426" cy="2.426" r="2.426" transform="translate(5.943 4.95)" fill="#fff"/>
    </g>
  </g>
</svg>
