<svg xmlns="http://www.w3.org/2000/svg" xmlns:xlink="http://www.w3.org/1999/xlink" width="235" height="235" viewBox="0 0 235 235">
  <defs>
    <clipPath id="clip-path">
      <circle id="Ellipse_5" data-name="Ellipse 5" cx="117.5" cy="117.5" r="117.5" transform="translate(46 168)" fill="#d6efe9"/>
    </clipPath>
    <clipPath id="clip-path-2">
      <path id="Path_5155" data-name="Path 5155" d="M322.768,37.913a30.126,30.126,0,1,0,7.257.889,30.106,30.106,0,0,0-7.257-.889h0" transform="translate(-292.688 -37.913)" fill="none"/>
    </clipPath>
    <radialGradient id="radial-gradient" cx="0.5" cy="0.475" r="0.475" gradientUnits="objectBoundingBox">
      <stop offset="0" stop-color="#fff"/>
      <stop offset="0.781" stop-color="#fff"/>
      <stop offset="0.819" stop-color="#f9f8f7"/>
      <stop offset="0.876" stop-color="#e8e5e3"/>
      <stop offset="0.944" stop-color="#cec8c1"/>
      <stop offset="1" stop-color="#b5aba1"/>
    </radialGradient>
  </defs>
  <g id="Mask_Group_1" data-name="Mask Group 1" transform="translate(-46 -168)" clip-path="url(#clip-path)">
    <circle id="Ellipse_6" data-name="Ellipse 6" cx="117.5" cy="117.5" r="117.5" transform="translate(46 168)" fill="#d6efe9"/>
    <circle id="Ellipse_10" data-name="Ellipse 10" cx="3.286" cy="3.286" r="3.286" transform="translate(226.886 307.426)" fill="#8e9bff"/>
    <circle id="Ellipse_9" data-name="Ellipse 9" cx="2.167" cy="2.167" r="2.167" transform="translate(97.361 316.925)" fill="#feaa00"/>
    <circle id="Ellipse_8" data-name="Ellipse 8" cx="3.286" cy="3.286" r="3.286" transform="translate(71.11 283.16)" fill="#8e9bff"/>
    <circle id="Ellipse_7" data-name="Ellipse 7" cx="2.104" cy="2.104" r="2.104" transform="translate(145.587 204.132)" fill="#ff8995"/>
    <circle id="Ellipse_2" data-name="Ellipse 2" cx="2.104" cy="2.104" r="2.104" transform="translate(213.096 241.074)" fill="#feaa00"/>
    <circle id="Ellipse_1" data-name="Ellipse 1" cx="1.171" cy="1.171" r="1.171" transform="translate(238.113 270.935)" fill="#fff"/>
    <g id="Group_7585" data-name="Group 7585" transform="translate(72.873 165.816)">
      <g id="OBJECTS" transform="translate(22.859 35.684)">
        <g id="Group_7565" data-name="Group 7565" transform="translate(53.969)">
          <g id="Group_7564" data-name="Group 7564">
            <g id="Group_7548" data-name="Group 7548">
              <g id="Group_7547" data-name="Group 7547" transform="translate(10.412 10.412)">
                <g id="Group_7545" data-name="Group 7545">
                  <path id="Path_5189" data-name="Path 5189" d="M391,97.253a30.055,30.055,0,1,1,21.953,36.394A30.051,30.051,0,0,1,391,97.253" transform="translate(-390.107 -74.411)" fill="#54b848"/>
                </g>
                <path id="Path_5190" data-name="Path 5190" d="M393.257,110.954l27.754,17.724,27.754-17.724L421.011,93.231Z" transform="translate(-391.172 -80.772)" fill="#ffd201"/>
                <g id="Group_7546" data-name="Group 7546" transform="translate(17.948 18.294)">
                  <path id="Path_5191" data-name="Path 5191" d="M429.109,102.045a11.889,11.889,0,1,1-11.891,11.888,11.888,11.888,0,0,1,11.891-11.888" transform="translate(-417.218 -102.045)" fill="#2e3191"/>
                  <path id="Path_5192" data-name="Path 5192" d="M441.115,118.591a28.759,28.759,0,0,0-22.748-5.9,11.729,11.729,0,0,0-.617,1.836,27.367,27.367,0,0,1,4.413-.522,27.089,27.089,0,0,1,18.6,6.489,11.662,11.662,0,0,0,.349-1.9" transform="translate(-417.398 -105.507)" fill="#fff"/>
                </g>
                <path id="Path_5193" data-name="Path 5193" d="M419.436,113.7l.132.281.244.068.214-.13.044-.314-.128-.283-.244-.063-.216.13Zm-.237.04.011-.3.081-.173.136-.126.244-.081.427.1.217.416-.092.458-.379.216-.43-.1Z" transform="translate(-399.939 -87.473)" fill="#069c51"/>
                <path id="Path_5194" data-name="Path 5194" d="M421.8,113.329l.169-.015.211-.033.061-.056.017-.087-.038-.093-.095-.036-.173.013-.179.015Zm-.176.691-.1-1.158.488-.044.278.007.142.1.068.18-.058.22-.22.128.136.086.146.176.163.214-.278.024-.193-.236-.135-.158-.075-.044-.122,0-.048.005.044.483Z" transform="translate(-400.723 -87.391)" fill="#069c51"/>
                <path id="Path_5195" data-name="Path 5195" d="M424.038,112.885l.021.769.176-.005.143-.013.091-.053.057-.115.021-.212-.03-.205-.071-.112-.109-.051-.193,0Zm-.24-.19.43-.011.22.013.177.1.119.184.044.275-.03.248-.115.208-.163.1-.21.031-.441.013Z" transform="translate(-401.494 -87.346)" fill="#069c51"/>
                <path id="Path_5196" data-name="Path 5196" d="M426,113.811l.013-1.162.864.014,0,.2-.627-.011,0,.259.583.008,0,.2-.583-.01-.007.318.651.007,0,.2Z" transform="translate(-402.239 -87.334)" fill="#069c51"/>
                <path id="Path_5197" data-name="Path 5197" d="M428.042,113.859l.082-1.159.349.023.156.807.261-.776.353.023-.081,1.159-.217-.013.065-.913-.3.9-.224-.015-.166-.931-.064.912Z" transform="translate(-402.928 -87.351)" fill="#069c51"/>
                <path id="Path_5198" data-name="Path 5198" d="M431.549,114.192l.173-1.149.854.13-.03.195-.621-.1-.04.254.58.087-.031.194-.575-.088-.048.314.644.1-.03.195Z" transform="translate(-404.113 -87.468)" fill="#069c51"/>
                <path id="Path_5199" data-name="Path 5199" d="M435.042,113.845l-.074.322.125.028.187.026.085-.041.044-.081-.013-.112-.082-.071-.159-.046Zm-.447.888.264-1.132.367.085.267.078.139.149.013.236-.078.168-.121.089-.133.025-.24-.039-.149-.034-.1.429Z" transform="translate(-405.143 -87.656)" fill="#069c51"/>
                <path id="Path_5200" data-name="Path 5200" d="M437,114.641l.166.048.207.042.078-.026.047-.08-.007-.1-.072-.068-.166-.052-.169-.05Zm-.41.577.318-1.118.475.137.251.105.1.144v.19l-.135.187-.252.038.1.129.074.22.077.258-.271-.077-.1-.292-.071-.2-.054-.066L437,114.83l-.044-.013-.132.468Z" transform="translate(-405.817 -87.825)" fill="#069c51"/>
                <path id="Path_5201" data-name="Path 5201" d="M439.105,115.411l-.013.312.187.175.248-.024.186-.254.017-.312-.19-.17-.251.017Zm-.23-.073.146-.264.152-.116.177-.049.254.039.336.285v.469l-.288.366-.438.015-.339-.281Z" transform="translate(-406.589 -88.098)" fill="#069c51"/>
                <path id="Path_5202" data-name="Path 5202" d="M441.565,116.509l.075-.182.467.192-.173.427-.247.037-.281-.057-.268-.191-.1-.28.054-.315.193-.268.288-.115.278.054.278.212.047.291-.231-.049-.034-.161-.135-.111-.264,0-.2.234-.03.322.183.188.149.028.143-.015.057-.138Z" transform="translate(-407.319 -88.384)" fill="#069c51"/>
                <path id="Path_5203" data-name="Path 5203" d="M443.47,117.038l.16.077.193.078.082-.017.057-.068.013-.1-.06-.079-.149-.076-.169-.079Zm-.5.507.5-1.049.444.212.231.146.077.158-.037.187-.159.164-.254,0,.071.141.041.228.03.266-.254-.12-.044-.3-.037-.209-.044-.075-.1-.062-.04-.02-.211.44Z" transform="translate(-407.973 -88.634)" fill="#069c51"/>
                <path id="Path_5204" data-name="Path 5204" d="M444.907,118.5l.556-1.022.756.411-.091.171-.556-.3-.122.229.515.276-.1.172-.511-.277-.149.277.57.309-.092.173Z" transform="translate(-408.628 -88.968)" fill="#069c51"/>
                <path id="Path_5205" data-name="Path 5205" d="M446.887,119.2l.207.1-.017.19.116.134.173.047.109-.066.017-.074-.047-.085-.135-.14-.166-.236.031-.254.129-.119.183-.024.217.083.231.252-.03.282-.206-.114.013-.144-.108-.112-.159-.048-.068.044-.007.078.146.177.169.2.047.17-.053.181-.143.134-.2.027-.238-.095-.237-.263Z" transform="translate(-409.285 -89.371)" fill="#069c51"/>
                <path id="Path_5206" data-name="Path 5206" d="M448.636,120.3l.2.11-.027.185.112.14.169.056.108-.061.02-.069-.041-.09-.128-.147-.156-.244.044-.252.135-.112.187-.016.21.1.216.265-.044.277-.2-.122.017-.144-.1-.115-.156-.055-.075.036-.01.08.136.184.162.21.041.171-.065.179-.152.124-.2.021-.234-.108-.224-.273Z" transform="translate(-409.872 -89.752)" fill="#069c51"/>
                <path id="Path_5207" data-name="Path 5207" d="M450.68,121.5l-.106.3.122.218.244.06.258-.189.108-.29-.128-.218-.244-.062Zm-.2-.14.224-.2.18-.062.183.007.23.115.23.375-.146.448L451,122.3l-.424-.119-.23-.376Z" transform="translate(-410.465 -90.189)" fill="#069c51"/>
                <path id="Path_5208" data-name="Path 5208" d="M440.644,113.186l.112.336h.352l-.285.208.109.334-.288-.205-.285.205.112-.334-.285-.208h.352Z" transform="translate(-407.032 -87.516)" fill="#fff"/>
                <path id="Path_5209" data-name="Path 5209" d="M435.014,127.691l.109.336h.352l-.284.207.108.337-.285-.209-.284.209.109-.337-.285-.207h.353Z" transform="translate(-405.128 -92.418)" fill="#fff"/>
                <path id="Path_5210" data-name="Path 5210" d="M447.755,125.907l.112.344h.359l-.291.21.112.341-.292-.21-.288.21.108-.341-.288-.21h.356Z" transform="translate(-409.432 -91.815)" fill="#fff"/>
                <path id="Path_5211" data-name="Path 5211" d="M450.356,126.337l.071.217h.23l-.186.135.071.219-.186-.133-.183.133.068-.219-.183-.135h.23Z" transform="translate(-410.368 -91.96)" fill="#fff"/>
                <path id="Path_5212" data-name="Path 5212" d="M448.514,127.62l.1.3h.312l-.255.183.1.3-.254-.183-.251.183.1-.3-.254-.183h.312Z" transform="translate(-409.709 -92.394)" fill="#fff"/>
                <path id="Path_5213" data-name="Path 5213" d="M447.4,129.1l.095.291h.305l-.244.181.095.292-.251-.182-.244.182.1-.292-.251-.181h.308Z" transform="translate(-409.334 -92.895)" fill="#fff"/>
                <path id="Path_5214" data-name="Path 5214" d="M446,130.177l.074.223h.234l-.19.141.075.224-.193-.141-.19.141.071-.224-.191-.141h.238Z" transform="translate(-408.894 -93.258)" fill="#fff"/>
                <path id="Path_5215" data-name="Path 5215" d="M444.118,129.816l.074.221h.23l-.186.136.071.223-.19-.137-.186.137.071-.223-.187-.136h.234Z" transform="translate(-408.259 -93.136)" fill="#fff"/>
                <path id="Path_5216" data-name="Path 5216" d="M442.072,130.431l.078.24h.251l-.2.148.079.239-.2-.149-.2.149.078-.239-.2-.148h.25Z" transform="translate(-407.558 -93.344)" fill="#fff"/>
                <path id="Path_5217" data-name="Path 5217" d="M444.15,133.4l.072.227h.237l-.19.137.075.226-.193-.14-.193.14.075-.226-.19-.137h.234Z" transform="translate(-408.268 -94.346)" fill="#fff"/>
                <path id="Path_5218" data-name="Path 5218" d="M440.427,131.833l.1.305h.322l-.261.19.1.305-.261-.19-.261.19.1-.305-.261-.19h.322Z" transform="translate(-406.972 -93.818)" fill="#fff"/>
                <path id="Path_5219" data-name="Path 5219" d="M439.071,129.959l.078.234h.247l-.2.142.078.236-.2-.144-.2.144.075-.236-.2-.142H439Z" transform="translate(-406.548 -93.184)" fill="#fff"/>
                <path id="Path_5220" data-name="Path 5220" d="M444.156,131.429l.1.3h.312l-.254.184.1.3-.251-.183-.251.183.1-.3-.251-.184h.312Z" transform="translate(-408.236 -93.681)" fill="#fff"/>
                <path id="Path_5221" data-name="Path 5221" d="M435.156,134.314l.033.109h.112l-.092.066.034.1-.088-.065-.092.065.034-.1-.088-.066h.112Z" transform="translate(-405.283 -94.656)" fill="#fff"/>
                <path id="Path_5222" data-name="Path 5222" d="M439.822,118.649l.082.244h.254l-.207.149.082.244-.21-.149-.2.149.078-.244-.206-.149h.254Z" transform="translate(-406.797 -89.362)" fill="#fff"/>
                <path id="Path_5223" data-name="Path 5223" d="M435.06,122.607l.085.258h.272l-.221.158.085.258-.221-.161-.216.161.084-.258-.22-.158h.271Z" transform="translate(-405.181 -90.7)" fill="#fff"/>
                <path id="Path_5224" data-name="Path 5224" d="M437.156,124.24l.089.275h.291l-.234.169.091.275-.237-.169-.234.169.092-.275-.237-.169h.291Z" transform="translate(-405.88 -91.252)" fill="#fff"/>
                <path id="Path_5225" data-name="Path 5225" d="M433.263,124.3l.068.217h.231l-.187.132.071.22-.183-.136-.186.136.071-.22-.187-.132h.227Z" transform="translate(-404.591 -91.271)" fill="#fff"/>
                <path id="Path_5226" data-name="Path 5226" d="M434.187,125.774l.047.147h.152l-.125.088.047.144-.122-.09-.122.09.047-.144-.122-.088h.149Z" transform="translate(-404.938 -91.77)" fill="#fff"/>
                <path id="Path_5227" data-name="Path 5227" d="M420.106,116.314l.108.337h.352l-.284.2.108.337-.285-.209-.285.209.109-.337-.285-.2H420Z" transform="translate(-400.09 -88.573)" fill="#fff"/>
                <path id="Path_5228" data-name="Path 5228" d="M428,120.39l.088.277h.292l-.234.171.092.278-.237-.172-.238.172.1-.278-.237-.171h.292Z" transform="translate(-402.786 -89.95)" fill="#fff"/>
                <path id="Path_5229" data-name="Path 5229" d="M421.732,123.941l.109.337h.352l-.284.21.108.336-.284-.21-.288.21.108-.336-.285-.21h.352Z" transform="translate(-400.639 -91.151)" fill="#fff"/>
                <path id="Path_5230" data-name="Path 5230" d="M423.613,123.183l.054.17h.176l-.142.1.054.167-.142-.1-.142.1.054-.167-.142-.1h.176Z" transform="translate(-401.353 -90.894)" fill="#fff"/>
                <path id="Path_5231" data-name="Path 5231" d="M425.576,125.854l.092.286h.3l-.244.176.091.286-.241-.178-.247.178.1-.286-.245-.176h.3Z" transform="translate(-401.96 -91.797)" fill="#fff"/>
                <path id="Path_5232" data-name="Path 5232" d="M427.678,129.191l.109.335h.353l-.285.207.108.334-.284-.205-.285.205.108-.334-.285-.207h.352Z" transform="translate(-402.649 -92.925)" fill="#fff"/>
                <path id="Path_5233" data-name="Path 5233" d="M424.984,127.666l.094.285h.3l-.24.178.091.284-.244-.176-.241.176.091-.284-.244-.178h.3Z" transform="translate(-401.761 -92.409)" fill="#fff"/>
                <path id="Path_5234" data-name="Path 5234" d="M419.559,125.787l.071.222h.234l-.19.138.075.222-.19-.136-.19.136.071-.222-.189-.138h.234Z" transform="translate(-399.957 -91.774)" fill="#fff"/>
                <path id="Path_5235" data-name="Path 5235" d="M436.91,114.1l-.318,1.118.227.067.132-.468.044.013.112.044.054.066.071.2.1.292.271.077-.078-.258-.073-.22-.1-.129.251-.038.135-.187v-.19l-.1-.144-.251-.105Zm.465.63-.207-.042-.167-.048.085-.285.169.05.166.052.072.068.007.1-.047.08Z" transform="translate(-405.817 -87.825)" fill="#108543"/>
                <path id="Path_5236" data-name="Path 5236" d="M439.35,114.909l-.176.049-.153.116-.146.264v.464l.339.281.438-.015.288-.365v-.469l-.336-.285Zm-.071.988-.187-.175.013-.312.183-.256.251-.017.19.169-.017.312-.186.254Z" transform="translate(-406.589 -88.098)" fill="#108543"/>
                <path id="Path_5237" data-name="Path 5237" d="M441.572,115.757l-.288.115-.193.268-.054.315.1.28.268.192.281.057.247-.037.173-.427-.467-.192-.075.182.251.1-.057.138-.143.015-.149-.028-.183-.188.03-.322.2-.234.264,0,.136.111.034.161.231.049-.048-.292-.278-.212Z" transform="translate(-407.319 -88.385)" fill="#108543"/>
                <path id="Path_5238" data-name="Path 5238" d="M443.47,116.5l-.5,1.049.211.1.211-.44.04.02.1.062.043.074.038.209.044.3.254.12-.03-.266-.041-.228-.071-.141.254,0,.159-.163.037-.187-.077-.158-.23-.146Zm.352.7-.193-.078-.159-.077.126-.264.169.079.149.076.06.08-.013.1-.057.068Z" transform="translate(-407.973 -88.634)" fill="#108543"/>
                <path id="Path_5239" data-name="Path 5239" d="M445.463,117.483l-.556,1.022.78.422.092-.173-.57-.309.149-.277.512.277.1-.173-.515-.276.122-.229.556.3.091-.171Z" transform="translate(-408.628 -88.968)" fill="#108543"/>
                <path id="Path_5240" data-name="Path 5240" d="M447.483,118.675l-.183.024-.129.118-.031.254.166.236.135.14.047.085-.017.074-.109.066-.173-.047-.116-.134.017-.19-.207-.1-.034.327.237.263.238.095.2-.027.143-.134.053-.181-.047-.17-.169-.2-.146-.177.007-.078.068-.044.159.048.108.112-.013.144.206.114.031-.282-.231-.252Z" transform="translate(-409.285 -89.371)" fill="#108543"/>
                <path id="Path_5241" data-name="Path 5241" d="M449.263,119.8l-.187.015-.136.112-.044.253.156.244.128.147.041.09-.02.069-.108.061-.169-.056-.112-.141.027-.185-.2-.11-.047.325.224.273.234.108.2-.02.152-.124.065-.179-.041-.171-.162-.21-.136-.185.01-.08.075-.035.156.054.1.115-.017.144.2.122.044-.278-.216-.265Z" transform="translate(-409.872 -89.752)" fill="#108543"/>
                <path id="Path_5242" data-name="Path 5242" d="M450.887,121.1l-.18.062-.224.2-.138.441.23.376.424.119.386-.258.146-.448-.23-.375-.23-.115Zm.054.981-.244-.06-.122-.218.106-.3.254-.185.244.063.128.218-.109.29Z" transform="translate(-410.465 -90.189)" fill="#108543"/>
              </g>
              <g id="Ellipse_88" data-name="Ellipse 88" transform="translate(0 25.658) rotate(-25.047)" fill="none" stroke="#fff5e6" stroke-width="2.616">
                <circle cx="30.304" cy="30.304" r="30.304" stroke="none"/>
                <circle cx="30.304" cy="30.304" r="28.996" fill="none"/>
              </g>
            </g>
            <g id="Group_7549" data-name="Group 7549" transform="translate(13.601 53.703)">
              <path id="Path_5243" data-name="Path 5243" d="M399.3,145.183V143.73a4.591,4.591,0,0,1,1.047-2.98,3.119,3.119,0,0,1,1.213-.908h0a.558.558,0,0,1,.74.677,4.832,4.832,0,0,0-.26,1.377,34.75,34.75,0,0,1,.034,4.211c-.136.719-.685,2.636-2.157,2.808a43.92,43.92,0,0,1-4.869,0s-.661-2.545,1.069-3.253a3.386,3.386,0,0,1,2.714-.177.328.328,0,0,0,.469-.294Z" transform="translate(-394.923 -139.802)" fill="#464649" opacity="0.8" style="mix-blend-mode: multiply;isolation: isolate"/>
              <path id="Path_5244" data-name="Path 5244" d="M467.6,145.183V143.73a4.594,4.594,0,0,0-1.047-2.98,3.124,3.124,0,0,0-1.213-.908h0a.558.558,0,0,0-.74.677,4.859,4.859,0,0,1,.261,1.377,34.622,34.622,0,0,0-.034,4.211c.137.719.685,2.636,2.157,2.808a43.93,43.93,0,0,0,4.869,0s.661-2.545-1.069-3.253a3.386,3.386,0,0,0-2.714-.177.329.329,0,0,1-.47-.294Z" transform="translate(-418.465 -139.802)" fill="#464649" opacity="0.8" style="mix-blend-mode: multiply;isolation: isolate"/>
            </g>
            <path id="Path_5245" data-name="Path 5245" d="M441.149,209.874l-3.505-1.461a6.4,6.4,0,0,1-3.9-5.231l-.557-5.223h-7.028l-.554,5.1a6.4,6.4,0,0,1-3.85,5.2l-2.219.948V220.5h21.616Z" transform="translate(-389.64 -105.753)" fill="#ce745b"/>
            <path id="Path_5246" data-name="Path 5246" d="M428.929,201.653a5.79,5.79,0,0,0,7.8-.207l-.372-3.487h-7.028Z" transform="translate(-392.815 -105.753)" fill="#ffd6a4" opacity="0.86" style="mix-blend-mode: multiply;isolation: isolate"/>
            <path id="Path_5247" data-name="Path 5247" d="M439.26,178.732c-.171,6.763-4.636,12.251-8.74,12.251-4.395,0-8.536-5.488-8.741-12.251-.305-10.1,3.913-12.25,8.741-12.25S439.543,167.5,439.26,178.732Z" transform="translate(-390.393 -95.115)" fill="#ce745b"/>
            <path id="Path_5248" data-name="Path 5248" d="M436.594,167.221c1.48,1.71,2.36,4.742,2.225,10.087-.171,6.763-4.636,12.25-8.74,12.25a5.685,5.685,0,0,1-2.089-.41,6.81,6.81,0,0,0,4.634,2.085c4.1,0,8.569-5.488,8.74-12.251C441.565,171.028,439.519,168.2,436.594,167.221Z" transform="translate(-392.498 -95.365)" fill="#ffd6a4" opacity="0.5" style="mix-blend-mode: multiply;isolation: isolate"/>
            <path id="Path_5249" data-name="Path 5249" d="M436.017,164.7a4.233,4.233,0,0,1-3.9,2.545c-2.24.026-5.124-2.579-7.7-1.12a8.787,8.787,0,0,0-2.987,5.316c-.12.805-.333,1.621-.371,2.417a.678.678,0,0,1-1.264.31l-.012-.024a8.467,8.467,0,0,1-.249-7.278c.28-.567.657-1.1.882-1.69a12.77,12.77,0,0,1,.575-1.571,6.067,6.067,0,0,1,2.359-2.385c2.613-1.48,5.782-.847,8.645-.986,1.995-.1,4.632,1.89,4.149,4.1A1.928,1.928,0,0,1,436.017,164.7Z" transform="translate(-389.398 -92.998)" fill="#281102"/>
            <path id="Path_5250" data-name="Path 5250" d="M443.139,166.172s-.574,2.011.645,2.579c2.127.991,2.486,4.986,2.014,7.425a.364.364,0,0,0,.618.329,4.957,4.957,0,0,0,.965-1.409,8.275,8.275,0,0,0,1.086-4.106c-.21-2-1.188-4.479-2.815-5.005C445.185,165.834,443.377,165.018,443.139,166.172Z" transform="translate(-397.572 -94.805)" fill="#281102"/>
            <g id="Group_7551" data-name="Group 7551" transform="translate(29.513 81.002)">
              <g id="Group_7550" data-name="Group 7550">
                <path id="Path_5251" data-name="Path 5251" d="M422.029,183.408a1.925,1.925,0,0,1-1.552,2.342c-1.286,0-.92-1.631-1.349-2.85-.446-1.268,0-2.032,1.247-1.833C421.221,181.2,421.832,182.267,422.029,183.408Z" transform="translate(-418.959 -181.035)" fill="#ce745b"/>
              </g>
              <path id="Path_5252" data-name="Path 5252" d="M422.906,186.615a1.953,1.953,0,0,1-.856,1.162q-.021-.123-.04-.248A1.87,1.87,0,0,0,422.906,186.615Z" transform="translate(-419.99 -182.921)" fill="#ce745b" style="mix-blend-mode: multiply;isolation: isolate"/>
            </g>
            <g id="Group_7553" data-name="Group 7553" transform="translate(47.695 81.002)">
              <g id="Group_7552" data-name="Group 7552">
                <path id="Path_5253" data-name="Path 5253" d="M446.456,183.408a1.925,1.925,0,0,0,1.552,2.342c1.286,0,.92-1.631,1.349-2.85.446-1.268,0-2.032-1.247-1.833C447.264,181.2,446.653,182.267,446.456,183.408Z" transform="translate(-446.423 -181.035)" fill="#ce745b"/>
              </g>
              <path id="Path_5254" data-name="Path 5254" d="M446.706,186.615a1.953,1.953,0,0,0,.856,1.162q.021-.123.04-.248A1.87,1.87,0,0,1,446.706,186.615Z" transform="translate(-446.519 -182.921)" fill="#ce745b" style="mix-blend-mode: multiply;isolation: isolate"/>
            </g>
            <g id="Group_7558" data-name="Group 7558" transform="translate(23.318 144.884)">
              <g id="Group_7554" data-name="Group 7554" transform="translate(0 77.314)">
                <path id="Path_5255" data-name="Path 5255" d="M418.592,394.311l-.147,2.2s-3.674,2.939-5.143,3.38a7.566,7.566,0,0,0-3.319,2.2,1.683,1.683,0,0,0,.771,2.664,7.1,7.1,0,0,0,4.458-.162c3.063-.984,6.86-2.621,8.6-3.393a1.6,1.6,0,0,0,.952-1.463v-.918a1.61,1.61,0,0,0-.076-.489l-1.1-3.435Z" transform="translate(-409.601 -394.311)" fill="#e6e6e6"/>
                <path id="Path_5256" data-name="Path 5256" d="M414.526,400.189s2.861,1.257,1.616,3.379c0,0,4.677-1.732,7.314-2.935a2.436,2.436,0,0,0,1.4-2.573l-.486-3.308-4.115-.441v2.058l-1.472.969C417.634,398.1,415.769,399.329,414.526,400.189Z" transform="translate(-411.266 -394.311)" fill="#9b3a4a"/>
                <path id="Path_5257" data-name="Path 5257" d="M423.167,400.442a2.048,2.048,0,0,0-2.2-1.47" transform="translate(-413.441 -395.886)" fill="none" stroke="#e6e6e6" stroke-linecap="round" stroke-width="0.444"/>
                <path id="Path_5258" data-name="Path 5258" d="M421.391,401.552a2.048,2.048,0,0,0-2.2-1.47" transform="translate(-412.841 -396.261)" fill="none" stroke="#e6e6e6" stroke-linecap="round" stroke-width="0.444"/>
                <path id="Path_5259" data-name="Path 5259" d="M419.615,402.662a2.047,2.047,0,0,0-2.2-1.47" transform="translate(-412.241 -396.636)" fill="none" stroke="#e6e6e6" stroke-linecap="round" stroke-width="0.444"/>
              </g>
              <g id="Group_7555" data-name="Group 7555" transform="translate(20.073 77.314)">
                <path id="Path_5260" data-name="Path 5260" d="M446.094,394.311l.147,2.2s3.673,2.939,5.143,3.38a7.564,7.564,0,0,1,3.318,2.2,1.682,1.682,0,0,1-.77,2.664,7.1,7.1,0,0,1-4.459-.162c-3.063-.984-6.859-2.621-8.6-3.393a1.6,1.6,0,0,1-.951-1.463v-.918a1.59,1.59,0,0,1,.076-.489l1.1-3.435Z" transform="translate(-439.922 -394.311)" fill="#e6e6e6"/>
                <path id="Path_5261" data-name="Path 5261" d="M452.612,400.189s-2.862,1.257-1.617,3.379c0,0-4.676-1.732-7.314-2.935a2.438,2.438,0,0,1-1.4-2.573l.487-3.308,4.115-.441v2.058l1.472.969C449.5,398.1,451.369,399.329,452.612,400.189Z" transform="translate(-440.71 -394.311)" fill="#9b3a4a"/>
                <path id="Path_5262" data-name="Path 5262" d="M448.134,400.442a2.048,2.048,0,0,1,2.2-1.47" transform="translate(-442.697 -395.886)" fill="none" stroke="#e6e6e6" stroke-linecap="round" stroke-width="0.444"/>
                <path id="Path_5263" data-name="Path 5263" d="M449.909,401.552a2.048,2.048,0,0,1,2.2-1.47" transform="translate(-443.297 -396.261)" fill="none" stroke="#e6e6e6" stroke-linecap="round" stroke-width="0.444"/>
                <path id="Path_5264" data-name="Path 5264" d="M451.685,402.662a2.048,2.048,0,0,1,2.2-1.47" transform="translate(-443.897 -396.636)" fill="none" stroke="#e6e6e6" stroke-linecap="round" stroke-width="0.444"/>
              </g>
              <g id="Group_7556" data-name="Group 7556" transform="translate(8.817 81.812)" opacity="0.3" style="mix-blend-mode: multiply;isolation: isolate">
                <path id="Path_5265" data-name="Path 5265" d="M422.919,401.1v.063h.453Z" transform="translate(-422.919 -401.105)" fill="#fdcc9e"/>
              </g>
              <g id="Group_7557" data-name="Group 7557" transform="translate(0.594)">
                <path id="Path_5266" data-name="Path 5266" d="M426.2,279.741l.006.081s-12.638-3.224-14,0c-5.685,13.455,4.633,77.133,4.633,77.133s6.213,1.7,6.928,0c4.4-10.43-1.66-61.081,3.535-61.081s-1.732,48.919,2.557,60.812c.7,1.954,7.871-.292,7.871-.292s9.919-60.52,3.6-77.476C440.008,275.369,426.2,279.741,426.2,279.741Z" transform="translate(-410.498 -277.529)" fill="#44495d"/>
                <path id="Path_5267" data-name="Path 5267" d="M422.657,286.894a7.272,7.272,0,0,1-6.529,3.562S421.47,292.236,422.657,286.894Z" transform="translate(-412.401 -280.694)" fill="#3d3532" opacity="0.2" style="mix-blend-mode: multiply;isolation: isolate"/>
                <path id="Path_5268" data-name="Path 5268" d="M445.715,286.894a7.273,7.273,0,0,0,6.53,3.562S446.9,292.236,445.715,286.894Z" transform="translate(-422.4 -280.694)" fill="#3d3532" opacity="0.2" style="mix-blend-mode: multiply;isolation: isolate"/>
              </g>
              <path id="Path_5269" data-name="Path 5269" d="M441.629,278.919c-1.323-3.55-15.13.822-15.13.822l.006.081s-12.638-3.224-14,0a19.014,19.014,0,0,0-1.125,4.4c6.6,4.418,26.868,2.269,31.584.175A28.5,28.5,0,0,0,441.629,278.919Z" transform="translate(-410.202 -277.529)" fill="#0b2367" opacity="0.2" style="mix-blend-mode: multiply;isolation: isolate"/>
            </g>
            <g id="Group_7559" data-name="Group 7559" transform="translate(39.605 161.498)" opacity="0.3" style="mix-blend-mode: multiply;isolation: isolate">
              <path id="Path_5270" data-name="Path 5270" d="M439.878,363.436c-5.805-11.893,3.572-60.812-3.461-60.812-1.04,0-1.745.991-2.214,2.7.3-.626.66-.972,1.111-.972,5.194,0-1.732,48.919,2.557,60.812.7,1.954,7.871-.292,7.871-.292s.057-.316.158-.9C443.258,364.331,440.376,364.456,439.878,363.436Z" transform="translate(-434.203 -302.624)" fill="#0b2367"/>
            </g>
            <g id="Group_7560" data-name="Group 7560" transform="translate(50.673 53.703)">
              <path id="Path_5271" data-name="Path 5271" d="M450.92,189.576l12.148-16.745a2.876,2.876,0,0,0,.385-1.438V152.58h4.76l.974,21.668-7.11,13.7Z" transform="translate(-450.92 -144.12)" fill="#ce745b"/>
              <path id="Path_5272" data-name="Path 5272" d="M469.075,145.183V143.73a4.594,4.594,0,0,0-1.047-2.98,3.119,3.119,0,0,0-1.213-.908h0a.558.558,0,0,0-.74.677,4.854,4.854,0,0,1,.26,1.377,34.759,34.759,0,0,0-.034,4.211c.137.719.685,2.636,2.158,2.808a43.92,43.92,0,0,0,4.869,0s.661-2.545-1.069-3.253a3.386,3.386,0,0,0-2.714-.177.329.329,0,0,1-.47-.294Z" transform="translate(-456.034 -139.802)" fill="#ce745b"/>
              <path id="Path_5273" data-name="Path 5273" d="M471.876,146.089a3.389,3.389,0,0,0-2.714-.177.328.328,0,0,1-.47-.293v-1.946a2.952,2.952,0,0,0-.255-1.208,4.085,4.085,0,0,0-2-2.2.541.541,0,0,0-.37-.01.558.558,0,0,1,.749-.408,4.088,4.088,0,0,1,2,2.2,2.963,2.963,0,0,1,.256,1.208V145.2a.329.329,0,0,0,.47.293,3.384,3.384,0,0,1,2.714.177c1.73.708,1.069,3.253,1.069,3.253s-.175.156-.3.014C472.513,148.379,473.176,146.621,471.876,146.089Z" transform="translate(-456.037 -139.805)" fill="#ffb985" opacity="0.3" style="mix-blend-mode: multiply;isolation: isolate"/>
            </g>
            <g id="Group_7561" data-name="Group 7561" transform="translate(11.885 53.703)">
              <path id="Path_5274" data-name="Path 5274" d="M410.643,187.951l-12.191-15.12a2.876,2.876,0,0,1-.385-1.438V152.58h-4.76l-.974,21.668,7.11,13.7Z" transform="translate(-392.332 -144.12)" fill="#ce745b"/>
              <path id="Path_5275" data-name="Path 5275" d="M397.993,145.183V143.73a4.594,4.594,0,0,1,1.047-2.98,3.119,3.119,0,0,1,1.213-.908h0a.558.558,0,0,1,.739.677,4.856,4.856,0,0,0-.26,1.377,34.753,34.753,0,0,1,.034,4.211c-.137.719-.685,2.636-2.157,2.808a43.93,43.93,0,0,1-4.869,0s-.661-2.545,1.069-3.253a3.386,3.386,0,0,1,2.714-.177.329.329,0,0,0,.47-.294Z" transform="translate(-392.766 -139.802)" fill="#ce745b"/>
              <path id="Path_5276" data-name="Path 5276" d="M395.2,146.089a3.389,3.389,0,0,1,2.714-.177.328.328,0,0,0,.47-.293v-1.946a2.951,2.951,0,0,1,.256-1.208,4.085,4.085,0,0,1,2-2.2.541.541,0,0,1,.37-.01.557.557,0,0,0-.749-.408,4.087,4.087,0,0,0-2,2.2,2.962,2.962,0,0,0-.256,1.208V145.2a.329.329,0,0,1-.47.293,3.384,3.384,0,0,0-2.714.177c-1.73.708-1.069,3.253-1.069,3.253s.175.156.3.014C394.562,148.379,393.9,146.621,395.2,146.089Z" transform="translate(-392.77 -139.805)" fill="#ffb985" opacity="0.3" style="mix-blend-mode: multiply;isolation: isolate"/>
            </g>
            <path id="Path_5277" data-name="Path 5277" d="M448.55,153.534h-5.2v18.649s-11.223,15.089-13.145,17.011c-.309.309-.715.687-1.186,1.111a12.451,12.451,0,0,1-17.607-.878c-.072-.081-.139-.159-.2-.233-1.665-2-4.439-5.75-6.028-7.925h0c-.735-1.006-1.216-1.674-1.216-1.674l-.071.054-5.954-7.5V153.534h-5.2s-2.25,18.48-.692,22.877,8.095,15.276,9.155,16.763h0a40.044,40.044,0,0,0,3.892,5.2l-1.418,40.1c5.578,5.806,30.415,2.884,33.284.575l-2.723-40.109a63.307,63.307,0,0,0,15-22.488C450.868,172.07,448.55,153.534,448.55,153.534Z" transform="translate(-380.166 -90.739)" fill="#515389"/>
            <path id="Path_5278" data-name="Path 5278" d="M460.06,164.733l-.666-11.2-2.705.1L458,169.769c-.767,12.336-16.16,26.891-16.784,30.952-.866,5.628,1.731,33.334-4.762,37.23a25.76,25.76,0,0,1-12.976,3.631c9.407,1.016,22.28-.91,24.3-2.533l-2.723-40.109s9.151-9.908,12.181-16.835C460.259,177.776,460.259,172.149,460.06,164.733Z" transform="translate(-390.972 -90.739)" fill="#842866" opacity="0.4" style="mix-blend-mode: multiply;isolation: isolate"/>
            <path id="Path_5279" data-name="Path 5279" d="M409.63,210.737c-5.173-3.88-13.351-17.631-15.556-18.6a152.859,152.859,0,0,0,8,14.082h0a40.042,40.042,0,0,0,3.892,5.2l-.42,11.868C406.893,215.858,412.771,213.092,409.63,210.737Z" transform="translate(-381.035 -103.786)" fill="#842866" opacity="0.4" style="mix-blend-mode: multiply;isolation: isolate"/>
            <g id="Group_7563" data-name="Group 7563" transform="translate(47.695 81.002)" opacity="0.5" style="mix-blend-mode: multiply;isolation: isolate">
              <g id="Group_7562" data-name="Group 7562">
                <path id="Path_5280" data-name="Path 5280" d="M446.456,183.408a1.925,1.925,0,0,0,1.552,2.342c1.286,0,.92-1.631,1.349-2.85.446-1.268,0-2.032-1.247-1.833C447.264,181.2,446.653,182.267,446.456,183.408Z" transform="translate(-446.423 -181.035)" fill="#ffd6a4"/>
              </g>
              <path id="Path_5281" data-name="Path 5281" d="M446.706,186.615a1.953,1.953,0,0,0,.856,1.162q.021-.123.04-.248A1.87,1.87,0,0,1,446.706,186.615Z" transform="translate(-446.519 -182.921)" fill="#ffd6a4" style="mix-blend-mode: multiply;isolation: isolate"/>
            </g>
            <path id="Path_5282" data-name="Path 5282" d="M432.151,196.417a3.214,3.214,0,0,0,3.463-2.886h-6.926A3.214,3.214,0,0,0,432.151,196.417Z" transform="translate(-392.734 -104.257)" fill="#56192d"/>
            <path id="Path_5283" data-name="Path 5283" d="M438.758,179.623l-.31-2.549c0,6.927-3.789,9.713-4.824,10.354-4.021-3.77-7.508-.931-8.745.359a9.142,9.142,0,0,1-1.517-1.623c-1.516-1.95-1.8-7.791-1.8-7.791l-1.11.894a25.043,25.043,0,0,0,.619,6.926,12.28,12.28,0,0,0,4.151,7.007,6.614,6.614,0,0,0,8.884,0C440.18,187.9,438.758,179.623,438.758,179.623Zm-7.075,12.389-4.519-.13s-1.742-1.271-1.742-1.795v-.153a4.2,4.2,0,0,1,4.025-2.7,4.405,4.405,0,0,1,3.846,2.818A8.86,8.86,0,0,1,431.683,192.012Z" transform="translate(-389.939 -98.695)" fill="#281102"/>
          </g>
        </g>
        <g id="Group_7580" data-name="Group 7580" transform="translate(0 35.258)">
          <g id="Group_7579" data-name="Group 7579">
            <g id="Group_7586" data-name="Group 7586" transform="translate(0 0)">
              <g id="Group_7535" data-name="Group 7535" transform="translate(0.396 0.018)">
                <g id="Group_7530" data-name="Group 7530">
                  <g id="Group_7529" data-name="Group 7529" clip-path="url(#clip-path-2)">
                    <rect id="Rectangle_6569" data-name="Rectangle 6569" width="66.421" height="63.315" transform="translate(-3.107 0)" fill="url(#radial-gradient)"/>
                  </g>
                </g>
                <g id="Group_7531" data-name="Group 7531" transform="translate(0 0)">
                  <path id="Path_5156" data-name="Path 5156" d="M293.578,60.786a30.1,30.1,0,1,1,21.985,36.447,30.093,30.093,0,0,1-21.985-36.447" transform="translate(-292.688 -37.913)" fill="#223c72"/>
                </g>
                <g id="Group_7532" data-name="Group 7532" transform="translate(0.001 0)">
                  <path id="Path_5157" data-name="Path 5157" d="M344.146,46.8l-12.1,8.069V39.377c-.661-.213-1.332-.406-2.017-.575a29.959,29.959,0,0,0-16.558.6V54.867l-12.056-8.036a29.9,29.9,0,0,0-6.529,9.921l3.193,2.128h-3.956c-.2.626-.381,1.261-.541,1.907a29.948,29.948,0,0,0,.633,16.669h3.943L295,79.561a30.248,30.248,0,0,0,6.625,9.854l11.846-7.9V96.633q1.029.335,2.1.6a29.951,29.951,0,0,0,16.479-.571V81.519l11.893,7.927a29.9,29.9,0,0,0,6.642-9.842l-3.224-2.149h4.023q.357-1.082.635-2.207a29.961,29.961,0,0,0-.536-16.368h-4.042l3.255-2.169a30.248,30.248,0,0,0-6.543-9.914" transform="translate(-292.69 -37.914)" fill="#efebe7"/>
                </g>
                <g id="Group_7533" data-name="Group 7533" transform="translate(0.002 0.001)">
                  <path id="Path_5158" data-name="Path 5158" d="M308.838,58.88l-11.176-7.434A29.915,29.915,0,0,0,295.652,55l5.835,3.881Zm39.044-7.492a30.169,30.169,0,0,0-2.479-3.243L332.043,57.03v1.85h4.575ZM297.745,84.7a30.147,30.147,0,0,0,2.485,3.235l13.239-8.8V77.456h-4.826Zm54.691-21.954H328.175V38.406a29.932,29.932,0,0,0-10.838.006V62.748H293.163a29.925,29.925,0,0,0,.046,10.834h24.127V97.615a29.928,29.928,0,0,0,10.838.024V73.583h24.2a29.949,29.949,0,0,0,.062-10.834M336.877,77.456l10.953,7.284a29.962,29.962,0,0,0,2.029-3.541l-5.631-3.744Z" transform="translate(-292.692 -37.914)" fill="#ed3726"/>
                </g>
                <g id="Group_7534" data-name="Group 7534" transform="translate(39.354 4.597)">
                  <path id="Path_5159" data-name="Path 5159" d="M352.132,44.856v1.952a3.5,3.5,0,0,0,.181-1.05,2.2,2.2,0,0,0-.181-.9" transform="translate(-352.132 -44.856)" fill="#2f3e67"/>
                </g>
              </g>
              <g id="Ellipse_83" data-name="Ellipse 83" transform="translate(0 0)" fill="none" stroke="#fff5e6" stroke-width="2.616">
                <circle cx="30.304" cy="30.304" r="30.304" stroke="none"/>
                <circle cx="30.304" cy="30.304" r="28.996" fill="none"/>
              </g>
            </g>
            <path id="Path_5287" data-name="Path 5287" d="M34.882,157.635v-1.453a4.591,4.591,0,0,1,1.047-2.98,3.111,3.111,0,0,1,1.213-.908h0a.557.557,0,0,1,.739.677,4.835,4.835,0,0,0-.26,1.377,34.762,34.762,0,0,1,.034,4.212c-.137.718-.685,2.636-2.157,2.807a43.746,43.746,0,0,1-4.869,0s-.661-2.545,1.069-3.253a3.384,3.384,0,0,1,2.714-.177.328.328,0,0,0,.47-.293Z" transform="translate(-25.443 -110.338)" fill="#464649" opacity="0.4" style="mix-blend-mode: multiply;isolation: isolate"/>
            <path id="Path_5288" data-name="Path 5288" d="M103.579,157.635v-1.453a4.594,4.594,0,0,0-1.047-2.98,3.111,3.111,0,0,0-1.213-.908h0a.557.557,0,0,0-.739.677,4.859,4.859,0,0,1,.26,1.377,34.629,34.629,0,0,0-.034,4.212c.137.718.685,2.636,2.157,2.807a43.758,43.758,0,0,0,4.869,0s.661-2.545-1.069-3.253a3.386,3.386,0,0,0-2.714-.177.328.328,0,0,1-.47-.293Z" transform="translate(-49.117 -110.338)" fill="#464649" opacity="0.4" style="mix-blend-mode: multiply;isolation: isolate"/>
            <path id="Path_5289" data-name="Path 5289" d="M86.159,202.24,98.74,184.63a2.871,2.871,0,0,0,.385-1.438V164.378h4.761l.974,21.668-7.11,13.7Z" transform="translate(-44.252 -114.435)" fill="#fdcc9e"/>
            <path id="Path_5290" data-name="Path 5290" d="M70.67,216.477l-.426-4.237H63.8l-.426,4.237a2.574,2.574,0,0,1-2.561,2.316H59.366l.974,8.279H74.463v-8.279H73.231A2.574,2.574,0,0,1,70.67,216.477Z" transform="translate(-35.197 -130.611)" fill="#fdcc9e" style="mix-blend-mode: multiply;isolation: isolate"/>
            <path id="Path_5291" data-name="Path 5291" d="M69.252,216.386a7.2,7.2,0,0,0,3.417-.9l-.326-3.245H65.9l-.323,3.214A7.709,7.709,0,0,0,69.252,216.386Z" transform="translate(-37.295 -130.611)" fill="#fdcc9e" opacity="0.7" style="mix-blend-mode: multiply;isolation: isolate"/>
            <path id="Path_5292" data-name="Path 5292" d="M53.737,196.539c.04.552.469,1.094.059,1.124s-.776-.393-.816-.945a.9.9,0,0,1,.67-1.054C54.06,195.634,53.7,195.987,53.737,196.539Z" transform="translate(-33.037 -125.008)" fill="#f7a079"/>
            <path id="Path_5293" data-name="Path 5293" d="M76.035,189.763c-.957,9.337-5.746,13.6-10.055,13.6-5.268,0-9.478-5.227-10.056-13.6-.479-6.943,4.5-12.211,10.056-12.211S76.724,183.054,76.035,189.763Z" transform="translate(-34.023 -118.888)" fill="#fdcc9e"/>
            <path id="Path_5294" data-name="Path 5294" d="M73.636,180.82a11.379,11.379,0,0,1,2.438,8.316c-.958,9.337-5.746,13.6-10.056,13.6a7.874,7.874,0,0,1-4.89-1.723,8.391,8.391,0,0,0,6.622,3.454c4.309,0,9.1-4.264,10.055-13.6A11.352,11.352,0,0,0,73.636,180.82Z" transform="translate(-35.792 -119.992)" fill="#fdcc9e" opacity="0.4" style="mix-blend-mode: multiply;isolation: isolate"/>
            <path id="Path_5295" data-name="Path 5295" d="M75.514,179.092c-.053-1.643-1.466-4.346-3.162-4.663a11.4,11.4,0,0,1-3.815-.9c-2.226-.9-4.24-.9-5.294,0a9.623,9.623,0,0,1-4.139,1.7c-1.484.318-2.968,1.537-4.4,4.557a9.318,9.318,0,0,0,.053,7.314,26.954,26.954,0,0,1,1,3.713s.14-5.974,1.465-7.547c1.222-1.449-.216,2.19-.216,2.19,1.007.23,1.943-3.18,1.943-3.18.422,1.394-1.153,3.127-1.153,3.127,1.974,0,3.856-3.18,3.856-3.18a10.929,10.929,0,0,1-1.537,2.632c1.219-.053,2.915-2.685,2.915-2.685A6.239,6.239,0,0,1,62.053,184a3.236,3.236,0,0,0,2.508-1.837c-.477,1.166-3.286,3.816-3.286,3.816,2.491.053,5.247-3.763,5.247-3.763-.53,2.279-4.24,4.081-4.24,4.081,5.306-.326,7.956-2.174,9.28-3.982a6.673,6.673,0,0,1,.788.855c1.4,1.784,2.075,7.635,2.075,7.635a28.48,28.48,0,0,1,1.511-5.215C76.874,183.173,75.566,180.735,75.514,179.092Z" transform="translate(-33.372 -117.299)" fill="#5e2e10"/>
            <g id="Group_7569" data-name="Group 7569" transform="translate(19.556 69.221)">
              <path id="Path_5296" data-name="Path 5296" d="M56.087,195.65c.234,1.352-.391,2.589-1.4,2.762s-2.009-.781-2.243-2.132.391-2.588,1.4-2.762S55.854,194.3,56.087,195.65Z" transform="translate(-52.399 -193.497)" fill="#fdcc9e"/>
              <path id="Path_5297" data-name="Path 5297" d="M83.55,195.65c-.234,1.352.391,2.589,1.4,2.762s2.009-.781,2.243-2.132-.391-2.588-1.4-2.762S83.784,194.3,83.55,195.65Z" transform="translate(-62.91 -193.497)" fill="#fdcc9e"/>
              <path id="Path_5298" data-name="Path 5298" d="M83.55,195.65c-.234,1.352.391,2.589,1.4,2.762s2.009-.781,2.243-2.132-.391-2.588-1.4-2.762S83.784,194.3,83.55,195.65Z" transform="translate(-62.91 -193.497)" fill="#fdcc9e" opacity="0.4" style="mix-blend-mode: multiply;isolation: isolate"/>
            </g>
            <g id="Group_7570" data-name="Group 7570" transform="translate(41.907 41.483)">
              <path id="Path_5299" data-name="Path 5299" d="M86.159,202.24,98.74,184.63a2.871,2.871,0,0,0,.385-1.438V164.378h4.761l.974,21.668-7.11,13.7Z" transform="translate(-86.159 -155.919)" fill="#fdcc9e"/>
              <path id="Path_5300" data-name="Path 5300" d="M104.967,156.981v-1.453a4.6,4.6,0,0,0-1.047-2.98,3.116,3.116,0,0,0-1.213-.908h0a.557.557,0,0,0-.74.677,4.862,4.862,0,0,1,.261,1.378,34.615,34.615,0,0,0-.034,4.211c.137.719.685,2.636,2.157,2.807a43.759,43.759,0,0,0,4.869,0s.661-2.545-1.069-3.253a3.386,3.386,0,0,0-2.714-.177.328.328,0,0,1-.47-.293Z" transform="translate(-91.493 -151.6)" fill="#fdcc9e"/>
              <path id="Path_5301" data-name="Path 5301" d="M107.768,157.888a3.384,3.384,0,0,0-2.714-.177.329.329,0,0,1-.47-.294v-1.946a2.968,2.968,0,0,0-.256-1.208,4.086,4.086,0,0,0-2-2.2.543.543,0,0,0-.369-.01.557.557,0,0,1,.749-.408,4.085,4.085,0,0,1,2,2.2,2.954,2.954,0,0,1,.256,1.208V157a.328.328,0,0,0,.47.293,3.39,3.39,0,0,1,2.714.178c1.73.707,1.069,3.252,1.069,3.252s-.175.156-.3.014C108.406,160.177,109.069,158.42,107.768,157.888Z" transform="translate(-91.497 -151.604)" fill="#ffdec7" opacity="0.3" style="mix-blend-mode: multiply;isolation: isolate"/>
              <path id="Path_5302" data-name="Path 5302" d="M103.91,165.2c-.015.069-.025.108-.025.108h-.007v.005s-.175.156-.3.014l0-.005c-.375.016.256.041-.479.054l-.4,20.081-8.744,13.6-6.669,1.891-1.123,1.572,11.591-2.491,7.11-13.7Z" transform="translate(-86.159 -156.197)" fill="#fdcc9e" opacity="0.4" style="mix-blend-mode: multiply;isolation: isolate"/>
            </g>
            <g id="Group_7571" data-name="Group 7571" transform="translate(3.378 41.483)">
              <path id="Path_5303" data-name="Path 5303" d="M46.535,199.749,34.344,184.63a2.871,2.871,0,0,1-.385-1.438V164.378H29.2l-.975,21.668,7.11,13.7Z" transform="translate(-28.051 -155.919)" fill="#fdcc9e"/>
              <path id="Path_5304" data-name="Path 5304" d="M33.885,156.981v-1.453a4.6,4.6,0,0,1,1.047-2.98,3.121,3.121,0,0,1,1.213-.908h0a.557.557,0,0,1,.74.677,4.862,4.862,0,0,0-.261,1.378,34.618,34.618,0,0,1,.034,4.211c-.137.719-.685,2.636-2.157,2.807a43.746,43.746,0,0,1-4.869,0s-.661-2.545,1.069-3.253a3.384,3.384,0,0,1,2.714-.177.328.328,0,0,0,.47-.293Z" transform="translate(-28.485 -151.6)" fill="#fdcc9e"/>
              <path id="Path_5305" data-name="Path 5305" d="M31.091,157.888a3.386,3.386,0,0,1,2.714-.177.329.329,0,0,0,.47-.294v-1.946a2.967,2.967,0,0,1,.255-1.208,4.086,4.086,0,0,1,2-2.2.543.543,0,0,1,.369-.01.556.556,0,0,0-.749-.408,4.087,4.087,0,0,0-2,2.2,2.954,2.954,0,0,0-.256,1.208V157a.328.328,0,0,1-.47.293,3.39,3.39,0,0,0-2.714.178c-1.73.707-1.069,3.252-1.069,3.252s.175.156.3.014C30.454,160.177,29.791,158.42,31.091,157.888Z" transform="translate(-28.488 -151.604)" fill="#ffdec7" opacity="0.3" style="mix-blend-mode: multiply;isolation: isolate"/>
              <path id="Path_5306" data-name="Path 5306" d="M29.26,165.332l.47.09.4,20.081,8.744,13.6,6.669,1.891,1.123,1.572-11.59-2.491-7.11-13.7Z" transform="translate(-27.962 -156.241)" fill="#fdcc9e" opacity="0.4" style="mix-blend-mode: multiply;isolation: isolate"/>
            </g>
            <g id="Group_7576" data-name="Group 7576" transform="translate(14.985 124.872)">
              <g id="Group_7572" data-name="Group 7572" transform="translate(0 71.686)">
                <path id="Path_5307" data-name="Path 5307" d="M54.484,385.839l-.147,2.2s-3.673,2.939-5.143,3.38a7.569,7.569,0,0,0-3.318,2.2,1.683,1.683,0,0,0,.77,2.665,7.111,7.111,0,0,0,4.459-.162c3.063-.985,6.859-2.621,8.6-3.393a1.6,1.6,0,0,0,.951-1.464v-.918a1.585,1.585,0,0,0-.076-.488l-1.1-3.435Z" transform="translate(-45.494 -385.839)" fill="#e6e6e6"/>
                <path id="Path_5308" data-name="Path 5308" d="M50.418,391.717s2.862,1.257,1.617,3.38c0,0,4.676-1.732,7.314-2.935a2.439,2.439,0,0,0,1.4-2.573l-.487-3.308-4.115-.441V387.9s-.853.563-1.472.97C53.526,389.623,51.661,390.856,50.418,391.717Z" transform="translate(-47.158 -385.839)" fill="#9b3a4a"/>
                <path id="Path_5309" data-name="Path 5309" d="M59.059,391.969a2.048,2.048,0,0,0-2.2-1.469" transform="translate(-49.333 -387.414)" fill="none" stroke="#e6e6e6" stroke-linecap="round" stroke-width="0.444"/>
                <path id="Path_5310" data-name="Path 5310" d="M57.284,393.079a2.048,2.048,0,0,0-2.2-1.469" transform="translate(-48.733 -387.789)" fill="none" stroke="#e6e6e6" stroke-linecap="round" stroke-width="0.444"/>
                <path id="Path_5311" data-name="Path 5311" d="M55.508,394.189a2.048,2.048,0,0,0-2.2-1.47" transform="translate(-48.133 -388.164)" fill="none" stroke="#e6e6e6" stroke-linecap="round" stroke-width="0.444"/>
              </g>
              <g id="Group_7573" data-name="Group 7573" transform="translate(20.073 71.686)">
                <path id="Path_5312" data-name="Path 5312" d="M81.986,385.839l.147,2.2s3.674,2.939,5.143,3.38a7.571,7.571,0,0,1,3.319,2.2,1.683,1.683,0,0,1-.771,2.665,7.109,7.109,0,0,1-4.458-.162c-3.063-.985-6.86-2.621-8.6-3.393a1.6,1.6,0,0,1-.952-1.464v-.918a1.605,1.605,0,0,1,.076-.488l1.1-3.435Z" transform="translate(-75.814 -385.839)" fill="#e6e6e6"/>
                <path id="Path_5313" data-name="Path 5313" d="M88.5,391.717s-2.861,1.257-1.616,3.38c0,0-4.677-1.732-7.314-2.935a2.437,2.437,0,0,1-1.4-2.573l.486-3.308,4.115-.441V387.9s.853.563,1.472.97C85.4,389.623,87.262,390.856,88.5,391.717Z" transform="translate(-76.603 -385.839)" fill="#9b3a4a"/>
                <path id="Path_5314" data-name="Path 5314" d="M84.026,391.969a2.048,2.048,0,0,1,2.2-1.469" transform="translate(-78.589 -387.414)" fill="none" stroke="#e6e6e6" stroke-linecap="round" stroke-width="0.444"/>
                <path id="Path_5315" data-name="Path 5315" d="M85.8,393.079a2.048,2.048,0,0,1,2.2-1.469" transform="translate(-79.19 -387.789)" fill="none" stroke="#e6e6e6" stroke-linecap="round" stroke-width="0.444"/>
                <path id="Path_5316" data-name="Path 5316" d="M87.578,394.189a2.047,2.047,0,0,1,2.2-1.47" transform="translate(-79.79 -388.164)" fill="none" stroke="#e6e6e6" stroke-linecap="round" stroke-width="0.444"/>
              </g>
              <g id="Group_7574" data-name="Group 7574" transform="translate(8.817 76.184)" opacity="0.3" style="mix-blend-mode: multiply;isolation: isolate">
                <path id="Path_5317" data-name="Path 5317" d="M58.812,392.632v.063h.453Z" transform="translate(-58.812 -392.632)" fill="#fdcc9e"/>
              </g>
              <g id="Group_7575" data-name="Group 7575" transform="translate(0.594)">
                <path id="Path_5318" data-name="Path 5318" d="M62.094,279.769l.005.081s-12.638-3.224-14,0c-5.684,13.455,4.633,71.506,4.633,71.506s6.213,1.7,6.928,0C64.061,340.925,58,295.9,63.195,295.9s-1.731,43.291,2.557,55.184c.7,1.954,7.872-.293,7.872-.293s9.919-54.892,3.6-71.848C75.9,275.4,62.094,279.769,62.094,279.769Z" transform="translate(-46.391 -277.558)" fill="#27417c"/>
                <path id="Path_5319" data-name="Path 5319" d="M58.55,286.922a7.273,7.273,0,0,1-6.53,3.562S57.363,292.265,58.55,286.922Z" transform="translate(-48.293 -280.722)" fill="#0b2367" opacity="0.2" style="mix-blend-mode: multiply;isolation: isolate"/>
                <path id="Path_5320" data-name="Path 5320" d="M81.608,286.922a7.271,7.271,0,0,0,6.529,3.562S82.8,292.265,81.608,286.922Z" transform="translate(-58.293 -280.722)" fill="#0b2367" opacity="0.2" style="mix-blend-mode: multiply;isolation: isolate"/>
              </g>
              <path id="Path_5321" data-name="Path 5321" d="M77.521,278.947c-1.323-3.549-15.13.822-15.13.822l.005.081s-12.638-3.224-14,0a19,19,0,0,0-1.125,4.4c6.6,4.418,26.867,2.269,31.583.176A28.438,28.438,0,0,0,77.521,278.947Z" transform="translate(-46.095 -277.558)" fill="#0b2367" opacity="0.2" style="mix-blend-mode: multiply;isolation: isolate"/>
            </g>
            <g id="Group_7577" data-name="Group 7577" transform="translate(31.272 141.485)" opacity="0.3" style="mix-blend-mode: multiply;isolation: isolate">
              <path id="Path_5322" data-name="Path 5322" d="M75.771,357.836c-5.805-11.894,3.571-55.184-3.461-55.184-1.041,0-1.745.991-2.214,2.7.3-.626.659-.971,1.11-.971,5.2,0-1.731,43.291,2.557,55.184.7,1.954,7.872-.293,7.872-.293s.057-.316.158-.9C79.151,358.731,76.269,358.856,75.771,357.836Z" transform="translate(-70.096 -302.652)" fill="#0b2367"/>
            </g>
            <path id="Path_5323" data-name="Path 5323" d="M75.514,179.092c-.053-1.643-1.466-4.346-3.162-4.663a11.4,11.4,0,0,1-3.815-.9c-2.226-.9-4.24-.9-5.294,0a9.623,9.623,0,0,1-4.139,1.7c-1.484.318-2.968,1.537-4.4,4.557a9.318,9.318,0,0,0,.053,7.314,26.954,26.954,0,0,1,1,3.713s.14-5.974,1.465-7.547c1.222-1.449-.216,2.19-.216,2.19,1.007.23,1.943-3.18,1.943-3.18.422,1.394-1.153,3.127-1.153,3.127,1.974,0,3.856-3.18,3.856-3.18a10.929,10.929,0,0,1-1.537,2.632c1.219-.053,2.915-2.685,2.915-2.685A6.239,6.239,0,0,1,62.053,184a3.236,3.236,0,0,0,2.508-1.837c-.477,1.166-3.286,3.816-3.286,3.816,2.491.053,5.247-3.763,5.247-3.763-.53,2.279-4.24,4.081-4.24,4.081,5.306-.326,7.956-2.174,9.28-3.982a6.673,6.673,0,0,1,.788.855c1.4,1.784,2.075,7.635,2.075,7.635a28.48,28.48,0,0,1,1.511-5.215C76.874,183.173,75.566,180.735,75.514,179.092Z" transform="translate(-33.372 -117.299)" fill="#5e2e10"/>
            <path id="Path_5324" data-name="Path 5324" d="M78.348,177.552s1.227,4.9-5.267,8.793c0,0,5.108-1.015,6.017-5.269A7.081,7.081,0,0,0,78.348,177.552Z" transform="translate(-39.832 -118.888)" fill="#5e2e10" opacity="0.5" style="mix-blend-mode: multiply;isolation: isolate"/>
            <g id="Group_7578" data-name="Group 7578" transform="translate(23.629 65.732)" opacity="0.5" style="mix-blend-mode: multiply;isolation: isolate">
              <path id="Path_5325" data-name="Path 5325" d="M62.724,188.308A10.73,10.73,0,0,1,61,190.442a3.9,3.9,0,0,0,.922-.545A6.155,6.155,0,0,0,62.724,188.308Z" transform="translate(-59.377 -188.255)" fill="#5e2e10"/>
              <path id="Path_5326" data-name="Path 5326" d="M63.52,190.017a2.127,2.127,0,0,0,.779-.4,6.488,6.488,0,0,0,.656-1.384A12.368,12.368,0,0,1,63.52,190.017Z" transform="translate(-60.23 -188.228)" fill="#5e2e10"/>
              <path id="Path_5327" data-name="Path 5327" d="M66.528,192.963c.066,0,.126-.011.191-.016.172-.116.349-.243.528-.379C66.821,192.819,66.528,192.963,66.528,192.963Z" transform="translate(-61.246 -189.695)" fill="#5e2e10"/>
              <path id="Path_5328" data-name="Path 5328" d="M59.234,188.668a15.844,15.844,0,0,1-.684,2.128.41.41,0,0,0,.09,0A3.23,3.23,0,0,0,59.234,188.668Z" transform="translate(-58.55 -188.377)" fill="#5e2e10"/>
              <path id="Path_5329" data-name="Path 5329" d="M67.452,190.769a8.32,8.32,0,0,0,1.754-1.258,3.442,3.442,0,0,0,.575-1.2A14.94,14.94,0,0,1,67.452,190.769Z" transform="translate(-61.559 -188.255)" fill="#5e2e10"/>
              <path id="Path_5330" data-name="Path 5330" d="M67.184,189.082a4.315,4.315,0,0,0,.506-.807,3.924,3.924,0,0,1-.579.834Z" transform="translate(-61.443 -188.244)" fill="#5e2e10"/>
            </g>
            <path id="Path_5331" data-name="Path 5331" d="M81.608,186.549a1.405,1.405,0,0,0-.216-.019c.106-.3.218-.61.342-.929.936-2.42-.371-4.858-.424-6.5s-1.466-4.346-3.162-4.663a11.4,11.4,0,0,1-3.815-.9,11.2,11.2,0,0,0-3.214-.657V213.77h7.316V205.49H77.2a2.574,2.574,0,0,1-2.561-2.316l-.223-2.223c2.665-1.377,5.092-4.489,6.238-9.533.034.009.069.019.1.025,1,.174,2.009-.781,2.243-2.132S82.613,186.724,81.608,186.549Z" transform="translate(-39.169 -117.308)" fill="#fdcc9e" opacity="0.4" style="mix-blend-mode: multiply;isolation: isolate"/>
            <path id="Path_5332" data-name="Path 5332" d="M82.255,210.736l-6.893-5.48s-3.556,6.117-6.479,9.039c-.309.309-.714.687-1.185,1.111a12.451,12.451,0,0,1-17.607-.877c-.072-.081-.139-.159-.2-.234-2.435-2.922-7.245-9.6-7.245-9.6l-7,5.331a46.531,46.531,0,0,0,8.132,13.451l-1.418,32.738c5.577,5.806,30.415,2.884,33.284.575l-2.724-32.75A39.491,39.491,0,0,0,82.255,210.736Z" transform="translate(-27.182 -128.061)" fill="#a9d15a"/>
            <path id="Path_5333" data-name="Path 5333" d="M90.092,212.744c-.866-.433-2.06-2.537-2.6-1.732-2.6,3.9-9.524,11.256-10.39,16.884s1.732,25.974-4.762,29.87A25.757,25.757,0,0,1,59.367,261.4c9.407,1.016,22.28-.91,24.3-2.533l-2.724-32.75S87.061,219.671,90.092,212.744Z" transform="translate(-35.198 -130.135)" fill="#a9d15a" opacity="0.5" style="mix-blend-mode: multiply;isolation: isolate"/>
            <path id="Path_5334" data-name="Path 5334" d="M43.463,241.82c.959-9.05,5.033-11.956,4.413-16.2-.763-5.217-4.329-3.03-9.091-14.286-.717-1.694-1.645-.422-3.135.655h0a46.531,46.531,0,0,0,8.132,13.451l-.748,17.261C43.243,242.76,43.392,242.493,43.463,241.82Z" transform="translate(-27.182 -130.028)" fill="#a9d15a" opacity="0.5" style="mix-blend-mode: multiply;isolation: isolate"/>
            <path id="Path_5335" data-name="Path 5335" d="M69.351,210.972a3.463,3.463,0,0,0,3.463-3.463H65.888A3.463,3.463,0,0,0,69.351,210.972Z" transform="translate(-37.401 -129.012)" fill="#f44d61"/>
          </g>
        </g>
      </g>
    </g>
  </g>
</svg>
