<svg id="Group_2014" data-name="Group 2014" xmlns="http://www.w3.org/2000/svg" width="18.967" height="18.967" viewBox="0 0 18.967 18.967">
  <g id="Group_2015" data-name="Group 2015">
    <g id="Group_2014-2" data-name="Group 2014">
      <path id="Path_1249" data-name="Path 1249" d="M9.483,0a9.483,9.483,0,1,0,9.483,9.483A9.494,9.494,0,0,0,9.483,0Zm0,17.317a7.834,7.834,0,1,1,7.834-7.834A7.843,7.843,0,0,1,9.483,17.317Z" fill="#fff"/>
    </g>
  </g>
  <g id="Group_2017" data-name="Group 2017" transform="translate(4.947 4.947)">
    <g id="Group_2016" data-name="Group 2016">
      <path id="Path_1250" data-name="Path 1250" d="M136.935,128.112a.409.409,0,0,0-.454-.087l-5.772,2.474a.413.413,0,0,0-.217.217l-2.474,5.772a.412.412,0,0,0,.087.454.418.418,0,0,0,.292.12.434.434,0,0,0,.162-.033l5.772-2.474a.416.416,0,0,0,.217-.217l2.474-5.772A.413.413,0,0,0,136.935,128.112Zm-4.415,5.239a.825.825,0,1,1,.825-.825A.826.826,0,0,1,132.52,133.351Z" transform="translate(-127.984 -127.991)" fill="#fff"/>
    </g>
  </g>
</svg>
