<svg xmlns="http://www.w3.org/2000/svg" width="198.188" height="172.8" viewBox="0 0 198.188 172.8">
  <g id="Group_7675" data-name="Group 7675" transform="translate(-96 -213.186)">
    <g id="Group_1357" data-name="Group 1357" transform="translate(75.29 239.515)">
      <g id="Group_1335" data-name="Group 1335" transform="matrix(0.966, 0.259, -0.259, 0.966, 171.35, -10.387)">
        <path id="Path_294" data-name="Path 294" d="M17.021,7.949a1.989,1.989,0,0,1-.653.735l-2.624,1.781a3.236,3.236,0,0,1-3.3.216L8.389,9.622A3.236,3.236,0,0,1,6.65,6.806l-.116-3.4L3.12,5.657A2,2,0,0,1,.876,2.35L3.5.569A3.236,3.236,0,0,1,6.8.354L8.855,1.413a3.236,3.236,0,0,1,1.738,2.816l-.021,3.476,3.552-2.327a2,2,0,0,1,2.9,2.571Z" transform="translate(0)" fill="#ffa585"/>
        <path id="Path_295" data-name="Path 295" d="M0,1.818l.012.358.1,3.04A3.249,3.249,0,0,0,1.436,7.773c.788-.488,1.841-1.124,2.6-1.658l0-.446.019-3.031A3.245,3.245,0,0,0,2.621,0C1.847.551.783,1.279,0,1.818Z" transform="translate(6.535 1.59)" fill="#ef7c85"/>
      </g>
      <g id="Group_1356" data-name="Group 1356" transform="matrix(0.966, 0.259, -0.259, 0.966, 111.93, 71.175)">
        <path id="Path_294-2" data-name="Path 294" d="M17.021,7.949a1.989,1.989,0,0,1-.653.735l-2.624,1.781a3.236,3.236,0,0,1-3.3.216L8.389,9.622A3.236,3.236,0,0,1,6.65,6.806l-.116-3.4L3.12,5.657A2,2,0,0,1,.876,2.35L3.5.569A3.236,3.236,0,0,1,6.8.354L8.855,1.413a3.236,3.236,0,0,1,1.738,2.816l-.021,3.476,3.552-2.327a2,2,0,0,1,2.9,2.571Z" transform="translate(0)" fill="#ffa585"/>
        <path id="Path_295-2" data-name="Path 295" d="M0,1.818l.012.358.1,3.04A3.249,3.249,0,0,0,1.436,7.773c.788-.488,1.841-1.124,2.6-1.658l0-.446.019-3.031A3.245,3.245,0,0,0,2.621,0C1.847.551.783,1.279,0,1.818Z" transform="translate(6.535 1.59)" fill="#ef7c85"/>
      </g>
      <g id="Group_1332" data-name="Group 1332" transform="translate(23.069 34.079)">
        <path id="Path_290" data-name="Path 290" d="M269.279,192.292l-.891-1.805a.962.962,0,0,0-.724-.526l-1.992-.289a.962.962,0,0,1-.533-1.641l1.442-1.405a.962.962,0,0,0,.277-.852l-.34-1.984a.962.962,0,0,1,1.4-1.014l1.782.937a.962.962,0,0,0,.9,0l1.782-.937a.962.962,0,0,1,1.4,1.014l-.34,1.984a.962.962,0,0,0,.277.852l1.442,1.405a.962.962,0,0,1-.533,1.641l-1.992.289a.962.962,0,0,0-.724.526L271,192.292A.962.962,0,0,1,269.279,192.292Z" transform="translate(-264.846 -182.662)" fill="#ffe266"/>
      </g>
      <path id="Path_311" data-name="Path 311" d="M106.446,21.835a1.938,1.938,0,0,1-.149-3.551c.007,0,.511-.208.6-.449.069-.178.074-.192-.136-.716A4.463,4.463,0,0,1,109.125,11c.508-.246.513-.261.582-.439s.074-.192-.136-.716a4.5,4.5,0,0,1-.157-3.573,5.323,5.323,0,0,1,2.179-2.446,2.376,2.376,0,0,1,1.91-.151,1.938,1.938,0,0,1,.148,3.551c-.007,0-.505.194-.6.449-.069.178-.074.192.137.716a4.464,4.464,0,0,1-2.36,6.114c-.508.246-.514.261-.582.439s-.074.192.137.716a4.5,4.5,0,0,1,.157,3.573,5.463,5.463,0,0,1-2.183,2.464A2.154,2.154,0,0,1,106.446,21.835Zm0,0" transform="translate(-49.186 0.287)" fill="#ff8de4"/>
      <path id="Path_312" data-name="Path 312" d="M321.123,155.788c.085-.219.734-.548.742-.553a2.3,2.3,0,0,0-.176-4.208,3.007,3.007,0,0,0-2.349.1,6.519,6.519,0,0,0-2.692,2.938,5.535,5.535,0,0,0,.193,4.4c.259.645.252.662.168.882-.114.3-.734.548-.743.553a2.386,2.386,0,0,0,.183,4.373,2.652,2.652,0,0,0,2.346-.164,6.729,6.729,0,0,0,2.689-3.034,5.535,5.535,0,0,0-.193-4.4C321.032,156.025,321.038,156.007,321.123,155.788Zm0,0" transform="translate(-128.381 -131.789)" fill="#b18cd9"/>
      <path id="Path_330" data-name="Path 330" d="M321.123,155.788c.085-.219.734-.548.742-.553a2.3,2.3,0,0,0-.176-4.208,3.007,3.007,0,0,0-2.349.1,6.519,6.519,0,0,0-2.692,2.938,5.535,5.535,0,0,0,.193,4.4c.259.645.252.662.168.882-.114.3-.734.548-.743.553a2.386,2.386,0,0,0,.183,4.373,2.652,2.652,0,0,0,2.346-.164,6.729,6.729,0,0,0,2.689-3.034,5.535,5.535,0,0,0-.193-4.4C321.032,156.025,321.038,156.007,321.123,155.788Zm0,0" transform="translate(-204.897 -113.402)" fill="#ffb0b6"/>
      <path id="Path_332" data-name="Path 332" d="M321.123,155.788c.085-.219.734-.548.742-.553a2.3,2.3,0,0,0-.176-4.208,3.007,3.007,0,0,0-2.349.1,6.519,6.519,0,0,0-2.692,2.938,5.535,5.535,0,0,0,.193,4.4c.259.645.252.662.168.882-.114.3-.734.548-.743.553a2.386,2.386,0,0,0,.183,4.373,2.652,2.652,0,0,0,2.346-.164,6.729,6.729,0,0,0,2.689-3.034,5.535,5.535,0,0,0-.193-4.4C321.032,156.025,321.038,156.007,321.123,155.788Zm0,0" transform="translate(-190.454 -177.153)" fill="#ffb0b6"/>
      <path id="Path_313" data-name="Path 313" d="M74.146,50.056,79.835,46.1a1.725,1.725,0,0,0-.326-3.01l-6-2.479a1.67,1.67,0,0,0-2.307,1.6l.235,6.486A1.724,1.724,0,0,0,74.146,50.056Zm0,0" transform="translate(42.941 -36.653)" fill="#f9ee80"/>
      <path id="Path_314" data-name="Path 314" d="M371.747,3.95l3.762,3.369a1.257,1.257,0,0,0,2.079-.738l.749-4.67A1.218,1.218,0,0,0,376.811.544L372.251,1.8A1.257,1.257,0,0,0,371.747,3.95Zm0,0" transform="translate(-215.311 21.788)" fill="#2eddda"/>
      <path id="Path_331" data-name="Path 331" d="M371.747,3.95l3.762,3.369a1.257,1.257,0,0,0,2.079-.738l.749-4.67A1.218,1.218,0,0,0,376.811.544L372.251,1.8A1.257,1.257,0,0,0,371.747,3.95Zm0,0" transform="translate(-247.811 138.83)" fill="#2eddda"/>
      <g id="Group_1352" data-name="Group 1352" transform="translate(61.85 60.759)">
        <path id="Path_326" data-name="Path 326" d="M281.5,226.9c-1.658-1.9-3.419-3.745-5.233-5.49l3.828-3.981c1.929,1.855,3.8,3.818,5.564,5.837Z" transform="translate(-276.265 -217.432)" fill="#2eddda"/>
      </g>
      <g id="Group_1433" data-name="Group 1433" transform="translate(82.407 -19.857)">
        <path id="Path_326-2" data-name="Path 326" d="M281.5,226.9c-1.658-1.9-3.419-3.745-5.233-5.49l3.828-3.981c1.929,1.855,3.8,3.818,5.564,5.837Z" transform="translate(-276.265 -217.432)" fill="#2eddda"/>
      </g>
      <g id="Group_1354" data-name="Group 1354" transform="translate(204.534 25.069)">
        <path id="Path_328" data-name="Path 328" d="M69.281,30.243a10.313,10.313,0,0,0-2.354-.315,10.319,10.319,0,0,1-5.368-1.419c-2.219-1.493-3.011-3.887-3.647-5.811a8.741,8.741,0,0,0-1.386-3.01l3.839-3.536a12.752,12.752,0,0,1,2.5,4.907c.466,1.408.868,2.624,1.606,3.12a6.183,6.183,0,0,0,2.783.541,14.475,14.475,0,0,1,3.633.559Z" transform="translate(-56.526 -16.151)" fill="#ffb0b6"/>
      </g>
      <g id="Group_1343" data-name="Group 1343" transform="translate(20.71 72.591) rotate(-30)">
        <path id="Path_320" data-name="Path 320" d="M13.623,11.663a3.741,3.741,0,0,1-1.462-.291A4.343,4.343,0,0,1,9.914,6.318a20.316,20.316,0,0,0-8.444,5L0,9.83a22.424,22.424,0,0,1,11.261-6,9.426,9.426,0,0,1,2.124-1.772A13.7,13.7,0,0,1,23.17.245l-.4,2.051a11.6,11.6,0,0,0-7.736,1.215,3.432,3.432,0,0,1,3.126,2.226,3.624,3.624,0,0,1-.025,1.981A5.485,5.485,0,0,1,16.1,10.85a4.269,4.269,0,0,1-2.477.813Zm-1.2-5.925a3.636,3.636,0,0,0-.457.981,2.71,2.71,0,0,0,.074,1.667,1.831,1.831,0,0,0,.934,1.06,2.04,2.04,0,0,0,1.9-.294,3.4,3.4,0,0,0,1.23-1.95,1.663,1.663,0,0,0,.051-.856c-.211-.692-1.5-.879-2.615-.76q-.563.06-1.12.152Z" transform="translate(0)" fill="#ffb0b6"/>
      </g>
      <g id="Group_1349" data-name="Group 1349" transform="translate(189.08 94.723)">
        <path id="Path_324" data-name="Path 324" d="M53.833,262.334l3.815,1.294,3.228-2.409-.052,4.028,3.289,2.326-3.847,1.2-1.2,3.847-2.326-3.289-4.028.052,2.409-3.228Z" transform="translate(-52.717 -261.219)" fill="#2eddda"/>
      </g>
      <g id="Group_1377" data-name="Group 1377" transform="translate(193.138 64.531)">
        <path id="Path_324-2" data-name="Path 324" d="M53.833,262.334l3.815,1.294,3.228-2.409-.052,4.028,3.289,2.326-3.847,1.2-1.2,3.847-2.326-3.289-4.028.052,2.409-3.228Z" transform="translate(-52.717 -261.219)" fill="#f1cbff"/>
      </g>
    </g>
    <path id="Path_1031" data-name="Path 1031" d="M53.833,262.334l3.815,1.294,3.228-2.409-.052,4.028,3.289,2.326-3.847,1.2-1.2,3.847-2.326-3.289-4.028.052,2.409-3.228Z" transform="translate(72.452 86.504)" fill="#f1cbff"/>
    <path id="Path_1032" data-name="Path 1032" d="M381.982.359l1.2,3.382a.542.542,0,0,0,.282.317l3,1.354a.6.6,0,0,1,0,1.059l-3,1.354a.543.543,0,0,0-.282.317l-1.2,3.382a.488.488,0,0,1-.941,0l-1.2-3.382a.542.542,0,0,0-.282-.317l-3-1.354a.6.6,0,0,1,0-1.059l3-1.354a.544.544,0,0,0,.282-.317l1.2-3.382a.488.488,0,0,1,.941,0Z" transform="translate(-208.965 371.521)" fill="#ffc7b6"/>
    <circle id="Ellipse_68" data-name="Ellipse 68" cx="1.527" cy="1.527" r="1.527" transform="translate(124.716 327.461)" fill="#ef8bbd"/>
    <circle id="Ellipse_69" data-name="Ellipse 69" cx="1.527" cy="1.527" r="1.527" transform="translate(240.665 361.799)" fill="#ffe266"/>
    <path id="Path_1033" data-name="Path 1033" d="M13.623,11.663a3.741,3.741,0,0,1-1.462-.291A4.343,4.343,0,0,1,9.914,6.318a20.316,20.316,0,0,0-8.444,5L0,9.83a22.424,22.424,0,0,1,11.261-6,9.426,9.426,0,0,1,2.124-1.772A13.7,13.7,0,0,1,23.17.245l-.4,2.051a11.6,11.6,0,0,0-7.736,1.215,3.432,3.432,0,0,1,3.126,2.226,3.624,3.624,0,0,1-.025,1.981A5.485,5.485,0,0,1,16.1,10.85a4.269,4.269,0,0,1-2.477.813Zm-1.2-5.925a3.636,3.636,0,0,0-.457.981,2.71,2.71,0,0,0,.074,1.667,1.831,1.831,0,0,0,.934,1.06,2.04,2.04,0,0,0,1.9-.294,3.4,3.4,0,0,0,1.23-1.95,1.663,1.663,0,0,0,.051-.856c-.211-.692-1.5-.879-2.615-.76q-.563.06-1.12.152Z" transform="translate(217.822 224.771) rotate(-30)" fill="#ffe266"/>
  </g>
</svg>
