<svg id="Group_4120" data-name="Group 4120" xmlns="http://www.w3.org/2000/svg" width="19" height="19" viewBox="0 0 19 19">
  <g id="Group_4119" data-name="Group 4119">
    <g id="Group_4118" data-name="Group 4118">
      <path id="Path_3659" data-name="Path 3659" d="M15.63,14.286,12.6,13.527l-.175-.7a10.045,10.045,0,0,0,3.217-1.007.4.4,0,0,0,.192-.315.4.4,0,0,0-.151-.339c-.014-.011-1.429-1.18-1.429-5.228,0-3.414-.8-5.146-2.375-5.146h-.234A2.533,2.533,0,0,0,9.5,0C8.012,0,4.75,1.5,4.75,5.937c0,4.049-1.415,5.217-1.425,5.225a.395.395,0,0,0,.033.656,9.827,9.827,0,0,0,3.219,1.01l-.175.7-3.033.758A4.444,4.444,0,0,0,0,18.6a.4.4,0,0,0,.4.4H18.6a.4.4,0,0,0,.4-.4A4.443,4.443,0,0,0,15.63,14.286Z" fill="#9a9a9a"/>
    </g>
  </g>
</svg>
