<svg id="Group_2012" data-name="Group 2012" xmlns="http://www.w3.org/2000/svg" xmlns:xlink="http://www.w3.org/1999/xlink" width="390" height="248" viewBox="0 0 390 248">
  <defs>
    <clipPath id="clip-path">
      <path id="Rectangle_6537" data-name="Rectangle 6537" d="M0,0H390V216.1c0,17.616-17.909,31.9-40,31.9H40c-22.091,0-40-14.281-40-31.9Z" fill="#2c9f82"/>
    </clipPath>
  </defs>
  <g id="Mask_Group_1" data-name="Mask Group 1" clip-path="url(#clip-path)">
    <g id="Group_2007" data-name="Group 2007" transform="translate(-29.04 18.363)">
      <path id="Path_1056" data-name="Path 1056" d="M627.575,304.861a14.572,14.572,0,0,1-6.389-1.137,16.894,16.894,0,0,0-6.4-1.143c-2.07.162-3.575-.4-6.772-.729a11.019,11.019,0,0,1-6.022-2.532c-.75-.645-9.026-.807-12.412-.97s-9.031-4.555-13.549-4.723c-2.511-.089-11.1-2.055-19.514-3.763V257.117a8.3,8.3,0,0,0-1.881-5.261V222.844a4.207,4.207,0,0,0-4.44-3.915h-9a15.633,15.633,0,0,0-1.295-6.106,18.957,18.957,0,0,0-5.467-6.484,49.778,49.778,0,0,0-6.924-4.681,4.55,4.55,0,0,0,.22-1.185,4.007,4.007,0,0,0-.309-1.8l-.016-.01a4.8,4.8,0,0,0-1.541-1.761,15.2,15.2,0,0,0-1.756-1.137l-.042-1.085a1.285,1.285,0,0,0,.472-.97,1.048,1.048,0,0,0-.183-.613.955.955,0,0,0-.393-.409l-.026-.943a1.009,1.009,0,0,0,.236-.3.963.963,0,0,0,.115-.466,1.069,1.069,0,0,0-.126-.5.989.989,0,0,0-.3-.32l-.042-1-.341-7.6a.173.173,0,0,0-.178-.178.2.2,0,0,0-.178.178l-.336,7.6-.047,1a.958.958,0,0,0-.293.32,1.029,1.029,0,0,0-.152.5.912.912,0,0,0,.126.466,1.062,1.062,0,0,0,.252.3l-.047.943a1.044,1.044,0,0,0-.388.409,1.119,1.119,0,0,0-.168.613,1.149,1.149,0,0,0,.152.582.963.963,0,0,0,.32.388l-.052,1.085a15.614,15.614,0,0,0-1.745,1.137,4.935,4.935,0,0,0-1.551,1.761,3.805,3.805,0,0,0-.325,1.813,5.37,5.37,0,0,0,.21,1.185,48.749,48.749,0,0,0-6.9,4.681,19,19,0,0,0-5.462,6.484,15.644,15.644,0,0,0-1.3,6.106h-3V208.367a.167.167,0,0,0,.052-.052c.2-.315,4.728-7.768.608-15.415-1.358-2.5-4.078-4.9-7.186-6.966a66.366,66.366,0,0,0-9.073-5.032,4.663,4.663,0,0,0,.273-1.274,3.423,3.423,0,0,0-.419-1.945,5.879,5.879,0,0,0-2.034-1.9,20.8,20.8,0,0,0-2.306-1.206l-.068-1.169a1.371,1.371,0,0,0,.43-.419,1.131,1.131,0,0,0,.194-.634,1.034,1.034,0,0,0-.225-.655,1.261,1.261,0,0,0-.508-.44l-.058-1.006a1.5,1.5,0,0,0,.33-.325.894.894,0,0,0,.157-.5.862.862,0,0,0-.194-.529,1.012,1.012,0,0,0-.393-.351l-.052-1.074-.44-8.171a.25.25,0,0,0-.241-.183.215.215,0,0,0-.236.183l-.445,8.171-.052,1.074a.991.991,0,0,0-.4.351.909.909,0,0,0-.168.529.855.855,0,0,0,.157.5,1.068,1.068,0,0,0,.309.325l-.042,1.006a1.211,1.211,0,0,0-.514.44.965.965,0,0,0-.241.655,1.156,1.156,0,0,0,.194.624,1.857,1.857,0,0,0,.43.43l-.058,1.169a19.951,19.951,0,0,0-2.311,1.206,5.659,5.659,0,0,0-2.023,1.9l-.021.01a3.723,3.723,0,0,0-.409,1.934,4.265,4.265,0,0,0,.294,1.274,68.561,68.561,0,0,0-9.11,5.032c-3.1,2.07-5.828,4.466-7.181,6.966-4.2,7.8.619,15.4.629,15.415l.037.042v10.572H450.95v-5.451h-4.324a15.5,15.5,0,0,0,5.31-11.447c0-8.57-7.642-15.682-17.69-17.187a7.464,7.464,0,0,0-1.541-1.426V181.5a1.7,1.7,0,0,0-.8-1.373l-1.221-9.571c-.047-.325-.047-.356-.1-.042-.372,3.234-.791,6.421-1.221,9.613a1.7,1.7,0,0,0-.8,1.373v1.913a5.769,5.769,0,0,0-1.268,1.331c-10.525,1.185-18.654,8.433-18.654,17.281A15.526,15.526,0,0,0,414,213.477h-4.02v5.451h-9.812l-.44-33.634a4.156,4.156,0,0,0,2.044-2.07c.529-1.137.786-1.709,1.31-2.846.561-1.216-.11-2.2-1.489-2.2h-1.96l-.435-33.189h.016l.01-1.169h-.037l-.01-1.012a4.246,4.246,0,0,0,1.289-1.74h.152v-.388c.367-.954.582-1.525.98-2.558.466-1.221-.094-2.2-1.242-2.2h-1.268l-.246-18.754V116.5h-.01l-.042-3.354v-.5h-.01l-.147-11.725h.079v-.173h.079v-.173h.157v-.314h-.157v-.173h-.073v-.152h-.1l-.016-1.6a4.316,4.316,0,0,0,1.122-1.8c.383-1.143.571-1.714.954-2.857.409-1.211-.079-2.2-1.09-2.2H398.42l.042-10.614h1.468v-.147h.037v-.073H400l.01-.257h-.037V80.32h-.031v-.168h-1.457a7.026,7.026,0,0,0-.367-3.459,13.806,13.806,0,0,0-2.967-3.045,1.028,1.028,0,0,0,.529-.87,1.017,1.017,0,0,0-.954-1.017.867.867,0,0,0,.833-.865.854.854,0,0,0-.833-.87.593.593,0,0,0,.566-.587.584.584,0,0,0-.577-.6.6.6,0,0,0-.592.6.585.585,0,0,0,.566.587.884.884,0,0,0-.865.87.846.846,0,0,0,.833.865,1.041,1.041,0,0,0-.985,1.017.984.984,0,0,0,.477.849c-1.069,1.006-2.353,1.829-3.019,3.066a7,7,0,0,0-.414,3.459h-1.452v.168h-.026v.068H389.2v.257h.037v.073h.031v.147h1.457l-.052,10.614H388.65c-1.006,0-1.494.985-1.09,2.2.388,1.143.577,1.714.959,2.857.409,1.211,1.284,2.2,1.955,2.2h.01l-.026,1.2h-.094v.152h-.089v.173h-.157v.314h.157v.173h.079l-.01.173h.084l-.278,11.725-.016.692h.01l-.084,3.166-.016.671L389.6,135.92h-1.73c-1.153,0-1.709.98-1.242,2.2l1.09,2.841a3.888,3.888,0,0,0,1.709,2.07l-.021.786h-.037v1.169h.01l-.786,33.189h-1.96c-1.378,0-2.044.985-1.488,2.2.524,1.137.786,1.709,1.3,2.846a4.226,4.226,0,0,0,1.976,2.039l-.8,33.666h-5.572l-.54-41.654a3.273,3.273,0,0,0,1.609-1.614c.409-.9.613-1.352,1.027-2.243.435-.964-.089-1.73-1.174-1.73H381.44l-.341-26.076h.01l.01-.922H381.1l-.011-.786a3.326,3.326,0,0,0,1.012-1.373h.121v-.294c.288-.76.461-1.211.77-2.018.367-.964-.068-1.73-.975-1.73h-1l-.194-14.734v-.529h-.005l-.031-2.631v-.4h-.005l-.115-9.214h.063v-.131h.058v-.136h.126v-.246h-.126v-.136h-.052v-.121h-.089l-.016-1.258a3.361,3.361,0,0,0,.886-1.41c.3-.9.451-1.347.755-2.243.315-.954-.063-1.73-.854-1.73H380.5l.037-8.339h1.143v-.115h.026v-.058h.031l.005-.2h-.026V94.8h-.031V94.67h-1.143a5.5,5.5,0,0,0-.283-2.715,10.613,10.613,0,0,0-2.338-2.39.824.824,0,0,0,.425-.687.8.8,0,0,0-.755-.8.682.682,0,0,0,.655-.681.671.671,0,0,0-.655-.681.471.471,0,0,0,.445-.466.459.459,0,0,0-.451-.472.47.47,0,0,0-.026.938.693.693,0,0,0-.676.681.665.665,0,0,0,.655.681.817.817,0,0,0-.771.8.76.76,0,0,0,.372.666,11.11,11.11,0,0,0-2.374,2.411,5.6,5.6,0,0,0-.325,2.715H373.3v.136h-.021v.052h-.037v.2h.031v.058h.026v.115h1.143l-.037,8.339h-1.593c-.792,0-1.174.776-.854,1.73.3.9.451,1.342.75,2.243.32.954,1.012,1.724,1.536,1.724h.01l-.021.943h-.073v.121h-.073v.136h-.121v.246h.121v.136h.063l-.005.131h.063l-.22,9.214-.01.54h.01l-.063,2.49-.016.529-.346,14.734h-1.352c-.907,0-1.342.765-.98,1.73.346.891.514,1.342.86,2.233a3.007,3.007,0,0,0,1.342,1.625l-.016.613h-.031v.922h.01l-.618,26.076h-1.541c-1.085,0-1.609.765-1.169,1.73.414.891.619,1.342,1.027,2.243a3.31,3.31,0,0,0,1.557,1.593l-.351,14.629h-2.39V179.828h-6.94v-12h-3.6c-.058-13.13-1.462-15.693-14.938-24.792-12.894-8.711-19.985-16.993-23.827-24.027h.985V117.25h-.975v-.5h-.959v-1.53a2.167,2.167,0,0,0,0-4.308v-.875a1.394,1.394,0,0,0,0-2.678v-2.217a7.275,7.275,0,0,0,.97.068,5.775,5.775,0,0,0,4.88-2.406,6.239,6.239,0,0,1-3.7,1.158c-3.045,0-5.509-2.018-5.509-4.508a3.847,3.847,0,0,1,.645-2.1,4.166,4.166,0,0,0-1.829,3.344,4.486,4.486,0,0,0,2.9,3.978v2.684a1.394,1.394,0,0,0,0,2.678v.875a2.167,2.167,0,0,0,0,4.308v1.368l-.079.162h-.891v.5h-.975v1.756h.718c-3.842,7.034-10.934,15.315-23.822,24.027-13.476,9.1-14.886,11.662-14.943,24.792h-3.6v12h-6.945v12.055H265.9l-.189-14.608a3.252,3.252,0,0,0,1.609-1.614c.414-.9.618-1.352,1.027-2.243.44-.964-.084-1.73-1.169-1.73h-1.536L265.3,145.61h.016l.005-.922h-.026l-.01-.786a3.373,3.373,0,0,0,1.012-1.373h.121v-.294c.288-.76.456-1.211.771-2.018.362-.964-.073-1.73-.975-1.73h-1l-.194-14.734v-.529h-.005l-.031-2.631v-.4h-.005l-.121-9.214h.063v-.131h.063v-.136h.121v-.246h-.121v-.136h-.058v-.121h-.084l-.016-1.258a3.413,3.413,0,0,0,.886-1.41c.3-.9.451-1.347.75-2.243.32-.954-.063-1.73-.854-1.73h-.917l.031-8.339h1.153v-.115h.026v-.058h.026l.01-.2H265.9V94.8h-.026V94.67h-1.143a5.565,5.565,0,0,0-.288-2.715,10.7,10.7,0,0,0-2.332-2.39.819.819,0,0,0,.419-.687.8.8,0,0,0-.755-.8.678.678,0,0,0,.655-.681.665.665,0,0,0-.655-.681.467.467,0,0,0,.445-.466.455.455,0,0,0-.451-.472.469.469,0,0,0-.021.938.689.689,0,0,0-.676.681.665.665,0,0,0,.655.681.817.817,0,0,0-.776.8.771.771,0,0,0,.372.666,11.232,11.232,0,0,0-2.374,2.411,5.593,5.593,0,0,0-.32,2.715h-1.143v.136h-.016v.052h-.037v.2h.026v.058h.026v.115h1.148l-.042,8.339H257c-.8,0-1.174.776-.854,1.73.3.9.446,1.342.75,2.243.32.954,1.006,1.724,1.536,1.724h.01l-.021.943h-.079v.121h-.068v.136h-.126v.246h.126v.136h.063l-.005.131h.063l-.215,9.214-.021.54h.01l-.063,2.49-.01.529-.346,14.734H256.4c-.9,0-1.342.765-.98,1.73.346.891.519,1.342.86,2.233a3.03,3.03,0,0,0,1.342,1.625l-.016.613h-.026v.922h.005l-.618,26.076H255.43c-1.085,0-1.609.765-1.174,1.73.414.891.618,1.342,1.033,2.243a3.337,3.337,0,0,0,1.546,1.593l-.98,41.674h-7.238V193.35l.047-.063c.2-.32,4.728-7.762.613-15.41-1.357-2.495-4.078-4.89-7.186-6.961a66.67,66.67,0,0,0-9.073-5.037,4.393,4.393,0,0,0,.273-1.268,3.423,3.423,0,0,0-.419-1.945,5.649,5.649,0,0,0-2.039-1.892,19.383,19.383,0,0,0-2.3-1.221l-.073-1.164a1.318,1.318,0,0,0,.43-.419,1.108,1.108,0,0,0,.194-.639,1.073,1.073,0,0,0-.22-.655,1.242,1.242,0,0,0-.514-.425l-.052-1.017a2.1,2.1,0,0,0,.33-.314.949.949,0,0,0,.152-.514.889.889,0,0,0-.194-.535,1.026,1.026,0,0,0-.388-.346l-.058-1.074-.435-8.161a.252.252,0,0,0-.241-.194.212.212,0,0,0-.236.194l-.451,8.161-.052,1.074a1.041,1.041,0,0,0-.393.346.938.938,0,0,0-.168.535.948.948,0,0,0,.152.514,1.347,1.347,0,0,0,.309.314l-.037,1.017a1.194,1.194,0,0,0-.519.425,1.027,1.027,0,0,0-.236.655,1.215,1.215,0,0,0,.189.629,1.966,1.966,0,0,0,.43.43l-.052,1.164a19.48,19.48,0,0,0-2.311,1.221,5.466,5.466,0,0,0-2.023,1.892l-.021.01a3.671,3.671,0,0,0-.409,1.934,4.361,4.361,0,0,0,.288,1.268,69.134,69.134,0,0,0-9.1,5.037c-3.1,2.07-5.834,4.466-7.186,6.961-4.2,7.8.624,15.4.629,15.42l.037.031v25.6h-7.165v-10.5l.037-.052c.157-.236,3.632-5.96.472-11.835a16.957,16.957,0,0,0-5.519-5.351,51.018,51.018,0,0,0-6.971-3.863,3.454,3.454,0,0,0,.21-.97,2.65,2.65,0,0,0-.325-1.5,4.457,4.457,0,0,0-1.562-1.462,18.088,18.088,0,0,0-1.766-.933l-.058-.891a1.03,1.03,0,0,0,.33-.325.863.863,0,0,0,.147-.493.773.773,0,0,0-.168-.5.939.939,0,0,0-.393-.33l-.042-.776a1.249,1.249,0,0,0,.252-.246.679.679,0,0,0,.121-.388.738.738,0,0,0-.147-.419.756.756,0,0,0-.3-.257l-.042-.833-.335-6.263a.186.186,0,0,0-.183-.152.16.16,0,0,0-.178.152L182.373,177l-.042.833a.723.723,0,0,0-.3.257.764.764,0,0,0-.131.419.679.679,0,0,0,.121.388,1.042,1.042,0,0,0,.236.246l-.026.776a.923.923,0,0,0-.4.33.76.76,0,0,0-.183.5.933.933,0,0,0,.147.482,1.435,1.435,0,0,0,.33.335l-.042.891a17.029,17.029,0,0,0-1.777.933,4.348,4.348,0,0,0-1.557,1.462h-.01a2.81,2.81,0,0,0-.314,1.5,3.437,3.437,0,0,0,.22.97,52.449,52.449,0,0,0-6.992,3.863,17.009,17.009,0,0,0-5.519,5.351c-3.223,5.991.482,11.825.487,11.846l.026.031v10.509H152.556l-.666-51.083a4.234,4.234,0,0,0,2.123-2.139c.545-1.174.818-1.772,1.358-2.956.577-1.253-.115-2.275-1.541-2.275H151.8l-.446-34.373h.016l.005-1.211h-.037l-.01-1.054a4.351,4.351,0,0,0,1.337-1.793h.157v-.409c.377-1,.6-1.578,1.017-2.652.482-1.263-.094-2.28-1.289-2.28h-1.32l-.257-19.425v-.7h-.005l-.047-3.47V92.59h-.005l-.157-12.144h.084v-.178h.079V80.09h.168v-.325h-.168v-.178h-.068V79.43h-.115l-.016-1.656a4.5,4.5,0,0,0,1.158-1.866c.4-1.185.6-1.772,1-2.956.419-1.258-.084-2.28-1.127-2.28h-1.211l.047-10.991h1.51v-.152h.037V59.45h.037l.005-.262h-.031V59.12h-.042v-.18h-1.5a7.334,7.334,0,0,0-.383-3.58c-.681-1.274-1.987-2.123-3.077-3.155a1.039,1.039,0,0,0-.44-1.955.9.9,0,0,0,.865-.9.881.881,0,0,0-.865-.9.615.615,0,0,0,.587-.608.6.6,0,0,0-.6-.624.616.616,0,1,0-.026,1.232.91.91,0,0,0-.891.9.875.875,0,0,0,.86.9,1.071,1.071,0,0,0-1.017,1.048,1.031,1.031,0,0,0,.487.886c-1.1,1.043-2.432,1.9-3.124,3.176a7.375,7.375,0,0,0-.43,3.58h-1.5v.178h-.026v.068h-.047v.262h.037v.079h.037v.152h1.51l-.052,10.991H140.42c-1.048,0-1.551,1.022-1.132,2.28.4,1.185.592,1.772.991,2.956.425,1.258,1.331,2.275,2.028,2.275h.01l-.031,1.247h-.1v.157H142.1v.178h-.163v.325h.163v.178h.079l-.005.178h.089l-.294,12.144-.021.713h.016l-.084,3.281-.016.7-.456,19.425h-1.787c-1.2,0-1.772,1.017-1.289,2.28.451,1.179.676,1.772,1.132,2.951a3.994,3.994,0,0,0,1.766,2.138l-.021.818h-.037V126.1h.01l-.818,34.373h-2.023c-1.431,0-2.123,1.022-1.546,2.275.545,1.185.812,1.782,1.352,2.956a4.356,4.356,0,0,0,2.049,2.107l-1.206,51.114H122.665v-29.17c.073-.2.152-.4.22-.6,4.225-11.19-11.9-20.106-21.186-27.8a17.048,17.048,0,0,1-3.3-3.8c-.063-2.6-.147-4.681-.241-6.043h.115a7.615,7.615,0,0,0,6.882-4.34,7.611,7.611,0,0,1-5.975,2.9,7.372,7.372,0,0,1-1.18-.094c-.031-.152-.063-.236-.089-.236s-.063.073-.089.2a7.62,7.62,0,0,1-6.258-7.49,7.464,7.464,0,0,1,.739-3.265,7.527,7.527,0,0,0-1.646,4.717,7.61,7.61,0,0,0,7,7.584c-.092,1.352-.176,3.444-.244,6.064a17,17,0,0,1-3.292,3.8c-9.283,7.689-25.416,16.6-21.191,27.8.079.2.152.4.225.6v29.174H57.231V167.8l.335-.891c6.342-16.809-17.868-30.18-31.8-41.727a25.262,25.262,0,0,1-4.943-5.724c-.084-3.339-.189-6.112-.3-8.119h-.886c-.121,2.007-.22,4.78-.3,8.119a25.535,25.535,0,0,1-4.943,5.724c-4.235,3.5-9.4,7.175-14.382,11.065V428.69H628.969V304.8A7.1,7.1,0,0,0,627.575,304.861Z" transform="translate(0 -42.146)" fill="#2c9f82"/>
      <path id="Path_1057" data-name="Path 1057" d="M77.9,55.374a2.934,2.934,0,0,0,1.924-.713c.073-.126.162-.252.252-.393a2.88,2.88,0,0,1-1.84.655,2.974,2.974,0,0,1-2.95-3.023,3.264,3.264,0,0,1,.377-1.489l-.084.089a3.118,3.118,0,0,0-.624,1.85A2.956,2.956,0,0,0,77.9,55.374Z" transform="translate(317.919 -28.616)" fill="#2c9f82"/>
      <path id="Path_1058" data-name="Path 1058" d="M30.676,51.394a3.033,3.033,0,0,0,1.992-.739c.079-.131.173-.257.257-.4a2.976,2.976,0,0,1-1.9.676A3.078,3.078,0,0,1,27.964,47.8a3.362,3.362,0,0,1,.393-1.541l-.089.094a3.258,3.258,0,0,0-.645,1.918,3.061,3.061,0,0,0,3.053,3.126Z" transform="translate(117.169 -46.252)" fill="#2c9f82"/>
      <path id="Path_1059" data-name="Path 1059" d="M51.984,57.743a2.285,2.285,0,0,0,1.51-.561c.063-.1.131-.194.2-.3a2.284,2.284,0,0,1-1.441.514,2.336,2.336,0,0,1-2.322-2.38,2.563,2.563,0,0,1,.3-1.169l-.063.073a2.439,2.439,0,0,0-.5,1.452,2.327,2.327,0,0,0,2.316,2.371Z" transform="translate(210.658 -14.055)" fill="#2c9f82"/>
      <path id="Path_1060" data-name="Path 1060" d="M74.074,57.743a2.309,2.309,0,0,0,1.515-.561c.063-.1.131-.194.194-.3a2.273,2.273,0,0,1-1.441.514,2.339,2.339,0,0,1-2.322-2.38,2.63,2.63,0,0,1,.3-1.169l-.063.073a2.47,2.47,0,0,0-.493,1.452,2.319,2.319,0,0,0,2.31,2.371Z" transform="translate(304.372 -14.055)" fill="#2c9f82"/>
    </g>
    <path id="Path_1064" data-name="Path 1064" d="M81.885,23.481a16.446,16.446,0,0,1,4.524-15.96,17.168,17.168,0,1,0,23.507,23.088,16.5,16.5,0,0,1-28.031-7.128Z" transform="translate(92.575 16.613)" fill="#2c9f82"/>
  </g>
  <path id="Rectangle_6536" data-name="Rectangle 6536" d="M0,0H390V208a40,40,0,0,1-40,40H40A40,40,0,0,1,0,208Z" fill="#37b898" opacity="0.9"/>
</svg>
