<svg xmlns="http://www.w3.org/2000/svg" width="49.358" height="60.248" viewBox="0 0 49.358 60.248">
  <g id="Group_7654" data-name="Group 7654" transform="translate(-45.979)">
    <g id="XMLID_2837_" transform="translate(45.979 0)">
      <path id="XMLID_2839_" d="M60.912,338.777,58,334.191l-3.091-.544-8.93,12.69,8.537.215,3.034,7.831,11.338-14.918-2.672-1.87Z" transform="translate(-45.979 -294.135)" fill="#fff"/>
      <path id="XMLID_2920_" d="M283.306,333.647l-3.091.544-2.911,4.586-5.3-1.182-2.672,1.87,11.338,14.918,3.034-7.831,8.537-.215Z" transform="translate(-242.878 -294.135)" fill="#fff"/>
      <circle id="XMLID_2924_" cx="7.105" cy="7.105" r="7.105" transform="translate(17.574 14.011)" fill="#fff"/>
      <path id="XMLID_2937_" d="M105.265,40.631l2.414-3.8,4.433-.78.78-4.434,3.8-2.414-.98-4.4,2.582-3.687-2.582-3.687.98-4.4-3.8-2.414-.78-4.434L107.68,5.4l-2.414-3.8-4.4.98L97.181,0,93.494,2.582,89.1,1.6,86.683,5.4l-4.433.78-.78,4.433-3.8,2.414.98,4.4-2.582,3.687L78.647,24.8l-.98,4.4,3.8,2.414.78,4.434,4.433.78,2.414,3.8,4.4-.98,3.687,2.582,3.687-2.582ZM86.523,21.116A10.658,10.658,0,1,1,97.181,31.774,10.67,10.67,0,0,1,86.523,21.116Z" transform="translate(-72.502 0)" fill="#fff"/>
    </g>
  </g>
</svg>
