<svg xmlns="http://www.w3.org/2000/svg" width="20.019" height="20.019" viewBox="0 0 20.019 20.019">
  <g id="Group_7633" data-name="Group 7633" transform="translate(0)">
    <g id="Group_7632" data-name="Group 7632" transform="translate(0)">
      <path id="Path_5364" data-name="Path 5364" d="M20.019,121.173v12.981H14.054a3.519,3.519,0,0,0-2.589,1.173H8.555a3.491,3.491,0,0,0-2.589-1.173H0V120H1.173v12.981h4.8a4.952,4.952,0,0,1,3.108,1.173h1.863a4.953,4.953,0,0,1,3.108-1.173h4.8V121.173Z" transform="translate(0 -115.308)" fill="#37b898"/>
      <path id="Path_5365" data-name="Path 5365" d="M65.9,74.622a5.72,5.72,0,0,0-2.277-.468H60V60h1.173V71.808h1.76A2.957,2.957,0,0,1,65.9,74.622Z" transform="translate(-57.654 -57.654)" fill="#37b898"/>
      <path id="Path_5366" data-name="Path 5366" d="M273.44,90a6.845,6.845,0,0,0-3.494.948,7.968,7.968,0,0,1,.041.812v12.37c.079-.057.168-.12.271-.187,1.811-1.208,3.059-.961,6.806-.961V90Z" transform="translate(-259.391 -86.481)" fill="#37b898"/>
      <g id="Group_7631" data-name="Group 7631" transform="translate(4.692)">
        <path id="Path_5367" data-name="Path 5367" d="M124.731,17.087a4.13,4.13,0,0,0-4.145-4.106H120V0c2.932,0,4.731,2.368,4.731,5.279Z" transform="translate(-120)" fill="#37b898"/>
      </g>
    </g>
  </g>
</svg>
