<svg id="Group_4112" data-name="Group 4112" xmlns="http://www.w3.org/2000/svg" width="18.596" height="18.596" viewBox="0 0 18.596 18.596">
  <g id="Group_4113" data-name="Group 4113">
    <g id="Group_4112-2" data-name="Group 4112">
      <path id="Path_3658" data-name="Path 3658" d="M15.3,13.982l-2.968-.742-.253-1.01a5.342,5.342,0,0,0,1.5-2.975,1.164,1.164,0,0,0,.84-.975l.194-1.55A1.16,1.16,0,0,0,13.868,5.5l.071-1.459.29-.291a1.788,1.788,0,0,0,.042-2.414A3.256,3.256,0,0,0,11.336,0,5.107,5.107,0,0,0,8.4.776c-3.3.069-3.75,1.6-3.75,3.1,0,.348.084,1.131.14,1.6a1.164,1.164,0,0,0-.8,1.253l.194,1.55a1.166,1.166,0,0,0,.932,1,5.376,5.376,0,0,0,1.425,2.884l-.27,1.079L3.3,13.984A4.346,4.346,0,0,0,0,18.209a.388.388,0,0,0,.387.387H18.209a.389.389,0,0,0,.387-.389A4.349,4.349,0,0,0,15.3,13.982Z" fill="#feaa00"/>
    </g>
  </g>
</svg>
