<svg xmlns="http://www.w3.org/2000/svg" width="31.812" height="32" viewBox="0 0 31.812 32">
  <g id="Group_7624" data-name="Group 7624" transform="translate(0 0.094)">
    <g id="Group_7609" data-name="Group 7609" transform="translate(0 5.654)">
      <g id="Group_7608" data-name="Group 7608">
        <path id="Path_5361" data-name="Path 5361" d="M22.84,104.048a8.388,8.388,0,1,0-13.868,0H0v1.864H31.812v-1.864Z" transform="translate(0 -91)" fill="#37b898"/>
      </g>
    </g>
    <g id="Group_7611" data-name="Group 7611" transform="translate(5.654 24.294)">
      <g id="Group_7610" data-name="Group 7610">
        <rect id="Rectangle_6570" data-name="Rectangle 6570" width="20" height="2" transform="translate(0.252 -0.388)" fill="#37b898"/>
      </g>
    </g>
    <g id="Group_7613" data-name="Group 7613" transform="translate(11.246 29.948)">
      <g id="Group_7612" data-name="Group 7612">
        <rect id="Rectangle_6571" data-name="Rectangle 6571" width="10" height="2" transform="translate(-0.34 -0.042)" fill="#37b898"/>
      </g>
    </g>
    <g id="Group_7615" data-name="Group 7615" transform="translate(14.974)">
      <g id="Group_7614" data-name="Group 7614">
        <rect id="Rectangle_6572" data-name="Rectangle 6572" width="2" height="4" transform="translate(-0.068 -0.094)" fill="#37b898"/>
      </g>
    </g>
    <g id="Group_7617" data-name="Group 7617" transform="translate(26.158 13.11)">
      <g id="Group_7616" data-name="Group 7616">
        <rect id="Rectangle_6573" data-name="Rectangle 6573" width="4" height="2" transform="translate(-0.252 -0.204)" fill="#37b898"/>
      </g>
    </g>
    <g id="Group_7619" data-name="Group 7619" transform="translate(1.926 13.11)">
      <g id="Group_7618" data-name="Group 7618">
        <rect id="Rectangle_6574" data-name="Rectangle 6574" width="4" height="2" transform="translate(-0.02 -0.204)" fill="#37b898"/>
      </g>
    </g>
    <g id="Group_7621" data-name="Group 7621" transform="translate(22.496 3.498)">
      <g id="Group_7620" data-name="Group 7620">
        <rect id="Rectangle_6575" data-name="Rectangle 6575" width="3.728" height="1.864" transform="translate(0 2.636) rotate(-45)" fill="#37b898"/>
      </g>
    </g>
    <g id="Group_7623" data-name="Group 7623" transform="translate(5.362 3.498)">
      <g id="Group_7622" data-name="Group 7622">
        <rect id="Rectangle_6576" data-name="Rectangle 6576" width="1.864" height="3.728" transform="translate(0 1.318) rotate(-45)" fill="#37b898"/>
      </g>
    </g>
  </g>
</svg>
