<svg xmlns="http://www.w3.org/2000/svg" width="20.823" height="19.564" viewBox="0 0 20.823 19.564">
  <g id="Group_7470" data-name="Group 7470" transform="translate(0 -14.806)">
    <g id="Group_7469" data-name="Group 7469" transform="translate(0 14.806)">
      <g id="Group_7468" data-name="Group 7468">
        <g id="Group_7467" data-name="Group 7467">
          <path id="Path_5041" data-name="Path 5041" d="M16.723,99.539a.733.733,0,0,0,.523.217.72.72,0,0,0,.51-.208L20.7,96.665a.722.722,0,0,0,.217-.523.747.747,0,0,0-.217-.523l-2.946-2.882a.73.73,0,1,0-1.024,1.041L18.4,95.412H16.549a3.8,3.8,0,0,1-2.912-1.36L7.219,85.317a5.257,5.257,0,0,0-4.284-2.223H.827a.729.729,0,0,0,0,1.458H2.935a3.8,3.8,0,0,1,3.1,1.615l6.444,8.769c.009.013.017.021.026.034a5.235,5.235,0,0,0,4.046,1.908H18.4L16.736,98.51A.719.719,0,0,0,16.723,99.539Z" transform="translate(-0.096 -80.192)" fill="#fff"/>
          <path id="Path_5042" data-name="Path 5042" d="M269.135,17.917l-2.963-2.9a.73.73,0,0,0-1.024,1.041l1.687,1.653h-1.849a5.238,5.238,0,0,0-4.046,1.9.238.238,0,0,0-.026.034l-1.207,1.645a.728.728,0,0,0,.157,1.02.739.739,0,0,0,.429.14.717.717,0,0,0,.587-.3l1.194-1.624a3.772,3.772,0,0,1,2.912-1.36h1.849l-1.687,1.653a.73.73,0,0,0,1.024,1.041l2.963-2.9a.739.739,0,0,0,0-1.046Z" transform="translate(-248.533 -14.806)" fill="#fff"/>
          <path id="Path_5043" data-name="Path 5043" d="M7.119,296.558l1.058-1.437A.73.73,0,1,0,7,294.259l-1.063,1.449c0,.008-.009.013-.013.021a3.8,3.8,0,0,1-3.09,1.59H.727a.729.729,0,0,0,0,1.458H2.835A5.253,5.253,0,0,0,7.119,296.558Z" transform="translate(0 -282.094)" fill="#fff"/>
        </g>
      </g>
    </g>
  </g>
</svg>
