<svg xmlns="http://www.w3.org/2000/svg" width="24" height="24" viewBox="0 0 24 24">
  <g id="vuesax_linear_book-square" data-name="vuesax/linear/book-square" transform="translate(-492 -188)">
    <g id="book-square">
      <path id="Vector" d="M7,20h6c5,0,7-2,7-7V7c0-5-2-7-7-7H7C2,0,0,2,0,7v6C0,18,2,20,7,20Z" transform="translate(494 190)" fill="none" stroke="#bababa" stroke-linecap="round" stroke-linejoin="round" stroke-width="1.5"/>
      <g id="Group">
        <path id="Vector-2" data-name="Vector" d="M12.76,8.974V1.284A1.253,1.253,0,0,0,11.38.014h-.04a12.041,12.041,0,0,0-4.51,1.51l-.11.07a.742.742,0,0,1-.68,0l-.16-.1A11.9,11.9,0,0,0,1.38,0,1.258,1.258,0,0,0,0,1.274v7.7a1.306,1.306,0,0,0,1.11,1.26l.18.03a16.2,16.2,0,0,1,4.74,1.56l.03.01a.658.658,0,0,0,.61,0,16.245,16.245,0,0,1,4.76-1.57l.21-.03A1.3,1.3,0,0,0,12.76,8.974Z" transform="translate(497.62 194.296)" fill="none" stroke="#bababa" stroke-linecap="round" stroke-linejoin="round" stroke-width="1.5"/>
        <path id="Vector-3" data-name="Vector" d="M0,0V9.56" transform="translate(504 196.1)" fill="none" stroke="#bababa" stroke-linecap="round" stroke-linejoin="round" stroke-width="1.5"/>
      </g>
      <path id="Vector-4" data-name="Vector" d="M0,0H24V24H0Z" transform="translate(492 188)" fill="none" opacity="0"/>
    </g>
  </g>
</svg>
