<svg xmlns="http://www.w3.org/2000/svg" width="20.004" height="20.004" viewBox="0 0 20.004 20.004">
  <g id="vuesax_bold_send-2" data-name="vuesax/bold/send-2" transform="translate(-300 -316)">
    <g id="send-2" transform="translate(300 316)">
      <path id="Vector" d="M11.321.331l-7.527,2.5c-5.059,1.692-5.059,4.451,0,6.135l2.234.742.742,2.234C8.454,17,11.221,17,12.9,11.941l2.509-7.518C16.53,1.047,14.7-.795,11.321.331Zm.267,4.484L8.42,8a.624.624,0,0,1-.884,0,.629.629,0,0,1,0-.884L10.7,3.931a.625.625,0,0,1,.884.884Z" transform="translate(2.132 2.137)" fill="#37b898"/>
      <path id="Vector-2" data-name="Vector" d="M0,0H20V20H0Z" transform="translate(20.004 20.004) rotate(180)" fill="none" opacity="0"/>
    </g>
  </g>
</svg>
