<svg xmlns="http://www.w3.org/2000/svg" width="25.293" height="23.018" viewBox="0 0 25.293 23.018">
  <g id="Group_7500" data-name="Group 7500" transform="translate(0 -4.31)">
    <g id="Beads" transform="translate(0 4.31)">
      <path id="Path_5057" data-name="Path 5057" d="M14.883,15.465a1.818,1.818,0,0,1,.885-2.935,1.823,1.823,0,0,1,.79-2.9,1.8,1.8,0,0,1,.082-2.476H15a1.921,1.921,0,0,0-1.921,1.923,4.51,4.51,0,0,1-4.505,4.5h-.79a.273.273,0,1,1,0-.545h.79a3.952,3.952,0,0,0,3.952-3.952,2.471,2.471,0,0,1,2.469-2.471h2.732a2.45,2.45,0,0,0,2.229-1.539.548.548,0,0,0-.5-.764h-6.37a2.59,2.59,0,0,0-1.3.35L7.522,7.126a2.9,2.9,0,0,0-.909.825L0,17.138l7.271,5.248L8.718,20.11,7.64,19.335a.272.272,0,0,1,.316-.443l1.054.753a2.877,2.877,0,0,1,.527-.693L7.393,17.422a.279.279,0,0,1-.061-.385.263.263,0,0,1,.382-.061l2.3,1.647a2.187,2.187,0,0,1,1.014-.248h3.04a1.823,1.823,0,0,1,.811-2.911Zm-1.952.714a.279.279,0,0,1-.371.1.263.263,0,0,1-.105-.374A9.748,9.748,0,0,0,13.7,11.284a.279.279,0,0,1,.263-.263.263.263,0,0,1,.263.277,10.322,10.322,0,0,1-1.3,4.882Z" transform="translate(0 -4.31)" fill="#37b898"/>
      <path id="Path_5058" data-name="Path 5058" d="M59.485,49.164a1.452,1.452,0,0,0-1.541-1.452l-2.964.174a1.278,1.278,0,0,0,0,2.553l2.964.177a1.454,1.454,0,0,0,1.541-1.452Z" transform="translate(-39.597 -36.276)" fill="#37b898"/>
      <path id="Path_5059" data-name="Path 5059" d="M61.014,36.65l-2.964.174a1.278,1.278,0,0,0,0,2.553l2.964.177a1.454,1.454,0,1,0,0-2.9Z" transform="translate(-41.858 -28.13)" fill="#37b898"/>
      <path id="Path_5060" data-name="Path 5060" d="M66,27.024a1.452,1.452,0,0,0-1.539-1.452l-2.967.177a1.278,1.278,0,0,0,0,2.553l2.967.174A1.452,1.452,0,0,0,66,27.024Z" transform="translate(-44.392 -19.969)" fill="#37b898"/>
      <path id="Path_5061" data-name="Path 5061" d="M68.915,15.934a1.454,1.454,0,0,0-1.541-1.452l-2.964.177a1.278,1.278,0,0,0,0,2.553l2.964.174a1.452,1.452,0,0,0,1.541-1.452Z" transform="translate(-46.542 -11.801)" fill="#37b898"/>
      <path id="Path_5062" data-name="Path 5062" d="M74.1,9.293l.2-.013c.835,0,1.62-.292,2.45.379a.941.941,0,0,0,.456-.469.759.759,0,0,0-.714-1.125,7.436,7.436,0,0,0-1.518.126A3.08,3.08,0,0,1,74.1,9.293Z" transform="translate(-54.578 -7.075)" fill="#37b898"/>
      <path id="Path_5063" data-name="Path 5063" d="M85.764,12.023l.511.564a1.294,1.294,0,0,0,1.449.335.632.632,0,0,0,.2-1.041l-.611-.577a1.054,1.054,0,0,0-1.283-.14l-.148.09a.506.506,0,0,0-.119.769Z" transform="translate(-63.075 -9.244)" fill="#37b898"/>
      <path id="Path_5064" data-name="Path 5064" d="M63.735,61.728l-.809.234a.969.969,0,0,0-.619.527.761.761,0,0,0-.422-.767l-.593-.287a1,1,0,0,0-.685-.066.735.735,0,0,0,.14-.422c.021-.769.018-.648.018-.69l-1.676-.1.045.79a.759.759,0,0,0,.6.706.862.862,0,0,0,.369.029.761.761,0,0,0,.3,1.2l.79.316a.772.772,0,0,0,.7-.074c-.021.074,0-.142,0,1.755h-.263a.274.274,0,0,0,0,.548H61.9V66.3a.79.79,0,0,0-.561.759v1.409h1.655V67.055a.79.79,0,0,0-.548-.756v-.867h.263a.274.274,0,0,0,0-.548h-.263V63.627a.5.5,0,0,0,.34.047l.761-.166a1.294,1.294,0,0,0,1.006-1.1.63.63,0,0,0-.817-.682Zm-1.56,1.2c-.055,0-.079.045,0-.045S62.183,62.8,62.175,62.924Z" transform="translate(-43.522 -45.446)" fill="#37b898"/>
      <path id="Path_5065" data-name="Path 5065" d="M88.938,18.784l-.082-.032a.767.767,0,0,0-1.017.6L87.731,20a1,1,0,0,0,.263.859.756.756,0,0,0-.4.543l-.108.651a1,1,0,0,0,.466,1.014.764.764,0,0,0-.74.635l-.105.651a1,1,0,0,0,.487,1.035.767.767,0,0,0,1.136-.6l.071-.862a.761.761,0,0,0-.408-.743.764.764,0,0,0,.722-.7l.074-.862a.764.764,0,0,0-.219-.6.761.761,0,0,0,.393-.606l.076-.854a.767.767,0,0,0-.5-.769Z" transform="translate(-64.149 -14.914)" fill="#37b898"/>
      <path id="Path_5066" data-name="Path 5066" d="M86.887,44.324l-.068-.032a.767.767,0,0,0-1.017.6l-.108.651a1,1,0,0,0,.5,1.033.764.764,0,0,0,1.133-.6l.074-.862a.764.764,0,0,0-.514-.782Z" transform="translate(-63.108 -33.725)" fill="#37b898"/>
      <path id="Path_5067" data-name="Path 5067" d="M82.062,53.524l-.082-.032a.769.769,0,0,0-1.02.6l-.105.648a.977.977,0,0,0,.3.893.753.753,0,0,0-.635.224l-.458.472a1,1,0,0,0-.179,1.136.764.764,0,0,0,1.275.15l.551-.664a.764.764,0,0,0,.037-.93l-.05-.071c-.058-.082-.111-.105-.061-.082a.767.767,0,0,0,.854-.69l.071-.861a.759.759,0,0,0-.5-.788Z" transform="translate(-58.762 -40.501)" fill="#37b898"/>
    </g>
  </g>
</svg>
