<svg xmlns="http://www.w3.org/2000/svg" version="1.1" xmlns:xlink="http://www.w3.org/1999/xlink" width="512" height="512" x="0" y="0" viewBox="0 0 24 24" style="enable-background:new 0 0 512 512" xml:space="preserve"><g><path fill="#000000" d="M17.5 10c.604 0 1.147.368 1.371.928l3.48 8.7a1 1 0 0 1-1.858.743L19.544 18h-4.09l-.948 2.371a1 1 0 1 1-1.857-.742l3.48-8.7c.224-.561.767-.929 1.371-.929zM9 2a1 1 0 0 1 1 1v1h5a1 1 0 0 1 0 2h-.968a18.221 18.221 0 0 1-3.62 6.301c.506.452 1.042.868 1.603 1.245.414.278.596.803.411 1.266-.227.568-.904.807-1.415.47A17.129 17.129 0 0 1 9 13.725a16.767 16.767 0 0 1-5.224 3.21c-.529.202-1.102-.112-1.254-.658-.145-.52.15-1.058.654-1.256a14.796 14.796 0 0 0 4.414-2.719A17.969 17.969 0 0 1 5.522 9.44C5.142 8.785 5.636 8 6.392 8c.379 0 .725.209.918.535.496.836 1.062 1.62 1.69 2.342a16.165 16.165 0 0 0 2.91-4.876H3A1 1 0 0 1 3 4h5V3a1 1 0 0 1 1-1zm8.5 10.885L16.253 16h2.492z" opacity="1" data-original="#000000"></path></g></svg>