<svg xmlns="http://www.w3.org/2000/svg" width="21.234" height="11.5" viewBox="0 0 21.234 11.5">
  <g id="Group_2042" data-name="Group 2042" transform="translate(0 0)">
    <path id="Path_1254" data-name="Path 1254" d="M16.925,41.272l9.892-4.086a.11.11,0,0,0,.034-.01v-.054a.462.462,0,0,0-.631-.429l-.292.115V34.64a.462.462,0,0,0-.656-.419,17.478,17.478,0,0,1-3.5,1.3c-1.385.231-3.924.692-4.847,3-.923-2.308-3.462-2.77-4.847-3a17.535,17.535,0,0,1-3.5-1.3.462.462,0,0,0-.656.419v2.17l-.292-.115a.462.462,0,0,0-.631.43v.054a.11.11,0,0,1,.034.01Z" transform="translate(-6.308 -34.178)" fill="#fff"/>
    <path id="Path_1255" data-name="Path 1255" d="M24.6,49.034l-9.98,4.122L4.64,49.034a.462.462,0,0,0-.64.427v.153a.462.462,0,0,0,.285.427l8.187,3.382L6.631,56.645a.231.231,0,0,0,.111.433h2.34a.923.923,0,0,0,.427-.1l5.108-2.665,5.108,2.665a.923.923,0,0,0,.427.1h2.34a.231.231,0,0,0,.112-.433l-5.842-3.223,8.187-3.382a.462.462,0,0,0,.285-.427V49.46a.462.462,0,0,0-.638-.427Z" transform="translate(-4 -45.578)" fill="#fff"/>
  </g>
</svg>
