<svg xmlns="http://www.w3.org/2000/svg" width="27.09" height="27.09" viewBox="0 0 27.09 27.09">
  <g id="Group_1969" data-name="Group 1969" transform="translate(-12 -12)">
    <path id="Maximize_1_" d="M38.048,21.377a1.042,1.042,0,0,1-1.042-1.042v-5.21a1.043,1.043,0,0,0-1.042-1.042h-5.21a1.042,1.042,0,0,1,0-2.084h5.21a3.129,3.129,0,0,1,3.126,3.126v5.21A1.042,1.042,0,0,1,38.048,21.377ZM14.084,20.335v-5.21a1.043,1.043,0,0,1,1.042-1.042h5.21a1.042,1.042,0,0,0,0-2.084h-5.21A3.129,3.129,0,0,0,12,15.126v5.21a1.042,1.042,0,0,0,2.084,0ZM39.09,35.965v-5.21a1.042,1.042,0,0,0-2.084,0v5.21a1.043,1.043,0,0,1-1.042,1.042h-5.21a1.042,1.042,0,0,0,0,2.084h5.21A3.129,3.129,0,0,0,39.09,35.965ZM21.377,38.048a1.042,1.042,0,0,0-1.042-1.042h-5.21a1.043,1.043,0,0,1-1.042-1.042v-5.21a1.042,1.042,0,0,0-2.084,0v5.21a3.129,3.129,0,0,0,3.126,3.126h5.21A1.042,1.042,0,0,0,21.377,38.048Z" fill="#fff"/>
  </g>
</svg>
